<mxfile host="app.diagrams.net" agent="Mozilla/5.0 (Windows NT 10.0; Win64; x64) AppleWebKit/537.36 (KHTML, like Gecko) Chrome/134.0.0.0 Safari/537.36" version="26.1.1" pages="5">
  <diagram name="Página-1" id="VWLKyNo2RgWWg0Q7l7Tv">
    <mxGraphModel dx="2927" dy="2293" grid="1" gridSize="10" guides="1" tooltips="1" connect="1" arrows="1" fold="1" page="1" pageScale="1" pageWidth="827" pageHeight="1169" math="0" shadow="0">
      <root>
        <mxCell id="0" />
        <mxCell id="1" parent="0" />
        <mxCell id="Xx0-FAbtT6r73U7i-heh-1" value="Processo de Negócio de atribuição de ID (To Be)" style="swimlane;whiteSpace=wrap;html=1;startSize=23;" parent="1" vertex="1">
          <mxGeometry x="-570" y="-60" width="1080" height="630" as="geometry" />
        </mxCell>
        <mxCell id="Xx0-FAbtT6r73U7i-heh-2" value="Usuário" style="swimlane;horizontal=0;whiteSpace=wrap;html=1;" parent="Xx0-FAbtT6r73U7i-heh-1" vertex="1">
          <mxGeometry x="130" y="80" width="830" height="210" as="geometry" />
        </mxCell>
        <mxCell id="Xx0-FAbtT6r73U7i-heh-3" style="edgeStyle=orthogonalEdgeStyle;rounded=0;orthogonalLoop=1;jettySize=auto;html=1;exitX=1;exitY=0.5;exitDx=0;exitDy=0;entryX=0;entryY=0.5;entryDx=0;entryDy=0;" parent="Xx0-FAbtT6r73U7i-heh-2" source="Xx0-FAbtT6r73U7i-heh-4" target="Xx0-FAbtT6r73U7i-heh-6" edge="1">
          <mxGeometry relative="1" as="geometry" />
        </mxCell>
        <mxCell id="Xx0-FAbtT6r73U7i-heh-4" value="" style="ellipse;whiteSpace=wrap;html=1;aspect=fixed;strokeColor=light-dark(#11ff00, #ededed);strokeWidth=3;" parent="Xx0-FAbtT6r73U7i-heh-2" vertex="1">
          <mxGeometry x="40" y="82.5" width="45" height="45" as="geometry" />
        </mxCell>
        <mxCell id="Xx0-FAbtT6r73U7i-heh-21" style="edgeStyle=orthogonalEdgeStyle;rounded=0;orthogonalLoop=1;jettySize=auto;html=1;entryX=0;entryY=0.5;entryDx=0;entryDy=0;" parent="Xx0-FAbtT6r73U7i-heh-2" source="Xx0-FAbtT6r73U7i-heh-6" target="Xx0-FAbtT6r73U7i-heh-20" edge="1">
          <mxGeometry relative="1" as="geometry" />
        </mxCell>
        <mxCell id="Xx0-FAbtT6r73U7i-heh-6" value="Usuário compra o smartwatch SeniorAssist com ID único" style="rounded=1;whiteSpace=wrap;html=1;" parent="Xx0-FAbtT6r73U7i-heh-2" vertex="1">
          <mxGeometry x="120" y="75" width="120" height="60" as="geometry" />
        </mxCell>
        <mxCell id="Xx0-FAbtT6r73U7i-heh-24" style="edgeStyle=orthogonalEdgeStyle;rounded=0;orthogonalLoop=1;jettySize=auto;html=1;entryX=0;entryY=0.5;entryDx=0;entryDy=0;" parent="Xx0-FAbtT6r73U7i-heh-2" source="Xx0-FAbtT6r73U7i-heh-20" target="Xx0-FAbtT6r73U7i-heh-8" edge="1">
          <mxGeometry relative="1" as="geometry" />
        </mxCell>
        <mxCell id="Xx0-FAbtT6r73U7i-heh-20" value="O usuário insere nome, idade, telefone, endereço, doenças e tipo sanguíneo" style="rounded=1;whiteSpace=wrap;html=1;" parent="Xx0-FAbtT6r73U7i-heh-2" vertex="1">
          <mxGeometry x="490" y="62.5" width="120" height="85" as="geometry" />
        </mxCell>
        <mxCell id="Xx0-FAbtT6r73U7i-heh-8" value="" style="ellipse;whiteSpace=wrap;html=1;aspect=fixed;strokeColor=light-dark(#FF0800,#EDEDED);strokeWidth=3;" parent="Xx0-FAbtT6r73U7i-heh-2" vertex="1">
          <mxGeometry x="660" y="82.5" width="45" height="45" as="geometry" />
        </mxCell>
        <mxCell id="Xx0-FAbtT6r73U7i-heh-9" value="SeniroAssist" style="swimlane;horizontal=0;whiteSpace=wrap;html=1;" parent="Xx0-FAbtT6r73U7i-heh-1" vertex="1">
          <mxGeometry x="130" y="340" width="830" height="200" as="geometry" />
        </mxCell>
        <mxCell id="Xx0-FAbtT6r73U7i-heh-75" value="" style="ellipse;whiteSpace=wrap;html=1;aspect=fixed;strokeColor=light-dark(#FF0800,#EDEDED);strokeWidth=3;" parent="Xx0-FAbtT6r73U7i-heh-9" vertex="1">
          <mxGeometry x="280" y="77.51" width="45" height="45" as="geometry" />
        </mxCell>
        <mxCell id="Xx0-FAbtT6r73U7i-heh-10" style="edgeStyle=orthogonalEdgeStyle;rounded=0;orthogonalLoop=1;jettySize=auto;html=1;exitX=1;exitY=0.5;exitDx=0;exitDy=0;entryX=0;entryY=0.5;entryDx=0;entryDy=0;" parent="Xx0-FAbtT6r73U7i-heh-9" target="Xx0-FAbtT6r73U7i-heh-12" edge="1">
          <mxGeometry relative="1" as="geometry">
            <mxPoint x="81.00000000000318" y="100" as="sourcePoint" />
          </mxGeometry>
        </mxCell>
        <mxCell id="Xx0-FAbtT6r73U7i-heh-71" style="edgeStyle=orthogonalEdgeStyle;rounded=0;orthogonalLoop=1;jettySize=auto;html=1;entryX=0;entryY=0.5;entryDx=0;entryDy=0;" parent="Xx0-FAbtT6r73U7i-heh-9" source="Xx0-FAbtT6r73U7i-heh-12" edge="1">
          <mxGeometry relative="1" as="geometry">
            <mxPoint x="280.00000000001455" y="100" as="targetPoint" />
          </mxGeometry>
        </mxCell>
        <mxCell id="Xx0-FAbtT6r73U7i-heh-12" value="SeniorAssist atribui o ID para o smartwatch" style="rounded=1;whiteSpace=wrap;html=1;" parent="Xx0-FAbtT6r73U7i-heh-9" vertex="1">
          <mxGeometry x="120" y="70.01" width="120" height="60" as="geometry" />
        </mxCell>
        <mxCell id="Xx0-FAbtT6r73U7i-heh-13" value="" style="ellipse;whiteSpace=wrap;html=1;aspect=fixed;strokeColor=light-dark(#11ff00, #ededed);strokeWidth=3;" parent="Xx0-FAbtT6r73U7i-heh-9" vertex="1">
          <mxGeometry x="36" y="77.5" width="45" height="45" as="geometry" />
        </mxCell>
        <mxCell id="Xx0-FAbtT6r73U7i-heh-14" value="" style="group" parent="Xx0-FAbtT6r73U7i-heh-9" vertex="1" connectable="0">
          <mxGeometry x="36" y="77.5" width="45" height="45" as="geometry" />
        </mxCell>
        <mxCell id="Xx0-FAbtT6r73U7i-heh-15" value="" style="ellipse;whiteSpace=wrap;html=1;aspect=fixed;strokeColor=light-dark(#11ff00, #ededed);strokeWidth=3;" parent="Xx0-FAbtT6r73U7i-heh-14" vertex="1">
          <mxGeometry width="45" height="45" as="geometry" />
        </mxCell>
        <mxCell id="Xx0-FAbtT6r73U7i-heh-16" value="" style="verticalLabelPosition=bottom;html=1;verticalAlign=top;align=center;strokeColor=none;fillColor=#11FF00;shape=mxgraph.azure.message;pointerEvents=1;" parent="Xx0-FAbtT6r73U7i-heh-14" vertex="1">
          <mxGeometry x="5" y="10.629999999999995" width="35" height="23.75" as="geometry" />
        </mxCell>
        <mxCell id="Xx0-FAbtT6r73U7i-heh-72" value="" style="group;fillColor=none;" parent="Xx0-FAbtT6r73U7i-heh-9" vertex="1" connectable="0">
          <mxGeometry x="280" y="77.51" width="45" height="45" as="geometry" />
        </mxCell>
        <mxCell id="Xx0-FAbtT6r73U7i-heh-74" value="" style="verticalLabelPosition=bottom;html=1;verticalAlign=top;align=center;strokeColor=none;fillColor=#FF0000;shape=mxgraph.azure.message;pointerEvents=1;" parent="Xx0-FAbtT6r73U7i-heh-72" vertex="1">
          <mxGeometry x="5" y="10.629999999999995" width="35" height="23.75" as="geometry" />
        </mxCell>
        <mxCell id="Xx0-FAbtT6r73U7i-heh-89" value="" style="ellipse;whiteSpace=wrap;html=1;aspect=fixed;strokeColor=light-dark(#FF0800,#EDEDED);strokeWidth=3;" parent="Xx0-FAbtT6r73U7i-heh-9" vertex="1">
          <mxGeometry x="654" y="77.50999999999999" width="45" height="45" as="geometry" />
        </mxCell>
        <mxCell id="Xx0-FAbtT6r73U7i-heh-90" style="edgeStyle=orthogonalEdgeStyle;rounded=0;orthogonalLoop=1;jettySize=auto;html=1;exitX=1;exitY=0.5;exitDx=0;exitDy=0;entryX=0;entryY=0.5;entryDx=0;entryDy=0;" parent="Xx0-FAbtT6r73U7i-heh-9" edge="1">
          <mxGeometry relative="1" as="geometry">
            <mxPoint x="455.0000000000032" y="100" as="sourcePoint" />
            <mxPoint x="490" y="100" as="targetPoint" />
          </mxGeometry>
        </mxCell>
        <mxCell id="Xx0-FAbtT6r73U7i-heh-91" style="edgeStyle=orthogonalEdgeStyle;rounded=0;orthogonalLoop=1;jettySize=auto;html=1;entryX=0;entryY=0.5;entryDx=0;entryDy=0;" parent="Xx0-FAbtT6r73U7i-heh-9" edge="1">
          <mxGeometry relative="1" as="geometry">
            <mxPoint x="654.0000000000146" y="100" as="targetPoint" />
            <mxPoint x="610" y="100" as="sourcePoint" />
          </mxGeometry>
        </mxCell>
        <mxCell id="Xx0-FAbtT6r73U7i-heh-93" value="" style="ellipse;whiteSpace=wrap;html=1;aspect=fixed;strokeColor=light-dark(#11ff00, #ededed);strokeWidth=3;" parent="Xx0-FAbtT6r73U7i-heh-9" vertex="1">
          <mxGeometry x="410" y="77.5" width="45" height="45" as="geometry" />
        </mxCell>
        <mxCell id="Xx0-FAbtT6r73U7i-heh-94" value="" style="group" parent="Xx0-FAbtT6r73U7i-heh-9" vertex="1" connectable="0">
          <mxGeometry x="410" y="77.5" width="45" height="45" as="geometry" />
        </mxCell>
        <mxCell id="Xx0-FAbtT6r73U7i-heh-95" value="" style="ellipse;whiteSpace=wrap;html=1;aspect=fixed;strokeColor=light-dark(#11ff00, #ededed);strokeWidth=3;" parent="Xx0-FAbtT6r73U7i-heh-94" vertex="1">
          <mxGeometry width="45" height="45" as="geometry" />
        </mxCell>
        <mxCell id="Xx0-FAbtT6r73U7i-heh-96" value="" style="verticalLabelPosition=bottom;html=1;verticalAlign=top;align=center;strokeColor=none;fillColor=#11FF00;shape=mxgraph.azure.message;pointerEvents=1;" parent="Xx0-FAbtT6r73U7i-heh-94" vertex="1">
          <mxGeometry x="5" y="10.629999999999995" width="35" height="23.75" as="geometry" />
        </mxCell>
        <mxCell id="Xx0-FAbtT6r73U7i-heh-97" value="" style="group;fillColor=none;" parent="Xx0-FAbtT6r73U7i-heh-9" vertex="1" connectable="0">
          <mxGeometry x="654" y="77.50999999999999" width="45" height="45" as="geometry" />
        </mxCell>
        <mxCell id="Xx0-FAbtT6r73U7i-heh-98" value="" style="verticalLabelPosition=bottom;html=1;verticalAlign=top;align=center;strokeColor=none;fillColor=#FF0000;shape=mxgraph.azure.message;pointerEvents=1;" parent="Xx0-FAbtT6r73U7i-heh-97" vertex="1">
          <mxGeometry x="5" y="10.629999999999995" width="35" height="23.75" as="geometry" />
        </mxCell>
        <mxCell id="Xx0-FAbtT6r73U7i-heh-22" value="O sistema recebe essas informações e usa para o sistema de delivery e transporte" style="rounded=1;whiteSpace=wrap;html=1;" parent="Xx0-FAbtT6r73U7i-heh-9" vertex="1">
          <mxGeometry x="490" y="60.00999999999999" width="120" height="80" as="geometry" />
        </mxCell>
        <mxCell id="Xx0-FAbtT6r73U7i-heh-99" style="edgeStyle=orthogonalEdgeStyle;rounded=0;orthogonalLoop=1;jettySize=auto;html=1;entryX=0.5;entryY=1;entryDx=0;entryDy=0;dashed=1;" parent="Xx0-FAbtT6r73U7i-heh-1" source="Xx0-FAbtT6r73U7i-heh-12" target="Xx0-FAbtT6r73U7i-heh-6" edge="1">
          <mxGeometry relative="1" as="geometry" />
        </mxCell>
        <mxCell id="Xx0-FAbtT6r73U7i-heh-100" style="edgeStyle=orthogonalEdgeStyle;rounded=0;orthogonalLoop=1;jettySize=auto;html=1;entryX=0.5;entryY=0;entryDx=0;entryDy=0;dashed=1;" parent="Xx0-FAbtT6r73U7i-heh-1" source="Xx0-FAbtT6r73U7i-heh-20" target="Xx0-FAbtT6r73U7i-heh-22" edge="1">
          <mxGeometry relative="1" as="geometry" />
        </mxCell>
        <mxCell id="Xx0-FAbtT6r73U7i-heh-28" value="Processo de Negócio de atribuição de ID (As Is)" style="swimlane;whiteSpace=wrap;html=1;startSize=23;" parent="1" vertex="1">
          <mxGeometry x="-570" y="-740" width="1080" height="630" as="geometry" />
        </mxCell>
        <mxCell id="Xx0-FAbtT6r73U7i-heh-29" value="Usuário" style="swimlane;horizontal=0;whiteSpace=wrap;html=1;" parent="Xx0-FAbtT6r73U7i-heh-28" vertex="1">
          <mxGeometry x="130" y="80" width="870" height="210" as="geometry" />
        </mxCell>
        <mxCell id="Xx0-FAbtT6r73U7i-heh-51" style="edgeStyle=orthogonalEdgeStyle;rounded=0;orthogonalLoop=1;jettySize=auto;html=1;entryX=0;entryY=0.5;entryDx=0;entryDy=0;" parent="Xx0-FAbtT6r73U7i-heh-29" source="Xx0-FAbtT6r73U7i-heh-31" target="Xx0-FAbtT6r73U7i-heh-49" edge="1">
          <mxGeometry relative="1" as="geometry" />
        </mxCell>
        <mxCell id="Xx0-FAbtT6r73U7i-heh-31" value="" style="ellipse;whiteSpace=wrap;html=1;aspect=fixed;strokeColor=light-dark(#11ff00, #ededed);strokeWidth=3;" parent="Xx0-FAbtT6r73U7i-heh-29" vertex="1">
          <mxGeometry x="40" y="82.5" width="45" height="45" as="geometry" />
        </mxCell>
        <mxCell id="Xx0-FAbtT6r73U7i-heh-36" value="" style="ellipse;whiteSpace=wrap;html=1;aspect=fixed;strokeColor=light-dark(#FF0800,#EDEDED);strokeWidth=3;" parent="Xx0-FAbtT6r73U7i-heh-29" vertex="1">
          <mxGeometry x="770" y="82.5" width="45" height="45" as="geometry" />
        </mxCell>
        <mxCell id="Xx0-FAbtT6r73U7i-heh-109" style="edgeStyle=orthogonalEdgeStyle;rounded=0;orthogonalLoop=1;jettySize=auto;html=1;entryX=0;entryY=0.5;entryDx=0;entryDy=0;" parent="Xx0-FAbtT6r73U7i-heh-29" source="Xx0-FAbtT6r73U7i-heh-49" target="Xx0-FAbtT6r73U7i-heh-106" edge="1">
          <mxGeometry relative="1" as="geometry" />
        </mxCell>
        <mxCell id="Xx0-FAbtT6r73U7i-heh-49" value="O idoso precisa inserir a conta ou email para logar" style="rounded=1;whiteSpace=wrap;html=1;" parent="Xx0-FAbtT6r73U7i-heh-29" vertex="1">
          <mxGeometry x="130" y="65" width="120" height="80" as="geometry" />
        </mxCell>
        <mxCell id="Xx0-FAbtT6r73U7i-heh-113" style="edgeStyle=orthogonalEdgeStyle;rounded=0;orthogonalLoop=1;jettySize=auto;html=1;entryX=0;entryY=0.5;entryDx=0;entryDy=0;" parent="Xx0-FAbtT6r73U7i-heh-29" source="Xx0-FAbtT6r73U7i-heh-50" target="Xx0-FAbtT6r73U7i-heh-36" edge="1">
          <mxGeometry relative="1" as="geometry" />
        </mxCell>
        <mxCell id="Xx0-FAbtT6r73U7i-heh-50" value="O idoso precisa inserir a senha da conta para acessas alguns serviços" style="rounded=1;whiteSpace=wrap;html=1;" parent="Xx0-FAbtT6r73U7i-heh-29" vertex="1">
          <mxGeometry x="580" y="65" width="120" height="80" as="geometry" />
        </mxCell>
        <mxCell id="Xx0-FAbtT6r73U7i-heh-108" style="edgeStyle=orthogonalEdgeStyle;rounded=0;orthogonalLoop=1;jettySize=auto;html=1;entryX=0;entryY=0.5;entryDx=0;entryDy=0;" parent="Xx0-FAbtT6r73U7i-heh-29" source="Xx0-FAbtT6r73U7i-heh-106" target="Xx0-FAbtT6r73U7i-heh-50" edge="1">
          <mxGeometry relative="1" as="geometry" />
        </mxCell>
        <mxCell id="Xx0-FAbtT6r73U7i-heh-106" value="" style="rhombus;whiteSpace=wrap;html=1;fillColor=#ffff88;strokeColor=#36393d;" parent="Xx0-FAbtT6r73U7i-heh-29" vertex="1">
          <mxGeometry x="385" y="80" width="60" height="50" as="geometry" />
        </mxCell>
        <mxCell id="Xx0-FAbtT6r73U7i-heh-107" value="O idoso está sozinho?" style="text;html=1;align=center;verticalAlign=middle;resizable=0;points=[];autosize=1;strokeColor=none;fillColor=none;" parent="Xx0-FAbtT6r73U7i-heh-29" vertex="1">
          <mxGeometry x="345" y="40" width="140" height="30" as="geometry" />
        </mxCell>
        <mxCell id="Xx0-FAbtT6r73U7i-heh-115" value="Sim" style="text;html=1;align=center;verticalAlign=middle;resizable=0;points=[];autosize=1;strokeColor=none;fillColor=none;" parent="Xx0-FAbtT6r73U7i-heh-29" vertex="1">
          <mxGeometry x="490" y="70" width="40" height="30" as="geometry" />
        </mxCell>
        <mxCell id="Xx0-FAbtT6r73U7i-heh-116" value="Não" style="text;html=1;align=center;verticalAlign=middle;resizable=0;points=[];autosize=1;strokeColor=none;fillColor=none;" parent="Xx0-FAbtT6r73U7i-heh-29" vertex="1">
          <mxGeometry x="355" y="150" width="50" height="30" as="geometry" />
        </mxCell>
        <mxCell id="Xx0-FAbtT6r73U7i-heh-37" value="Cuidador do idoso" style="swimlane;horizontal=0;whiteSpace=wrap;html=1;" parent="Xx0-FAbtT6r73U7i-heh-28" vertex="1">
          <mxGeometry x="134" y="370" width="866" height="200" as="geometry" />
        </mxCell>
        <mxCell id="Xx0-FAbtT6r73U7i-heh-38" style="edgeStyle=orthogonalEdgeStyle;rounded=0;orthogonalLoop=1;jettySize=auto;html=1;exitX=1;exitY=0.5;exitDx=0;exitDy=0;entryX=0;entryY=0.5;entryDx=0;entryDy=0;" parent="Xx0-FAbtT6r73U7i-heh-37" target="Xx0-FAbtT6r73U7i-heh-39" edge="1">
          <mxGeometry relative="1" as="geometry">
            <mxPoint x="81.00000000000318" y="100" as="sourcePoint" />
          </mxGeometry>
        </mxCell>
        <mxCell id="Xx0-FAbtT6r73U7i-heh-112" style="edgeStyle=orthogonalEdgeStyle;rounded=0;orthogonalLoop=1;jettySize=auto;html=1;entryX=0;entryY=0.5;entryDx=0;entryDy=0;" parent="Xx0-FAbtT6r73U7i-heh-37" source="Xx0-FAbtT6r73U7i-heh-39" target="Xx0-FAbtT6r73U7i-heh-110" edge="1">
          <mxGeometry relative="1" as="geometry" />
        </mxCell>
        <mxCell id="Xx0-FAbtT6r73U7i-heh-39" value="O cuidador precisa criar uma conta do google ou um email no smartwatch" style="rounded=1;whiteSpace=wrap;html=1;" parent="Xx0-FAbtT6r73U7i-heh-37" vertex="1">
          <mxGeometry x="126" y="60" width="120" height="80" as="geometry" />
        </mxCell>
        <mxCell id="Xx0-FAbtT6r73U7i-heh-40" value="" style="ellipse;whiteSpace=wrap;html=1;aspect=fixed;strokeColor=light-dark(#11ff00, #ededed);strokeWidth=3;" parent="Xx0-FAbtT6r73U7i-heh-37" vertex="1">
          <mxGeometry x="36" y="77.5" width="45" height="45" as="geometry" />
        </mxCell>
        <mxCell id="Xx0-FAbtT6r73U7i-heh-41" value="" style="group" parent="Xx0-FAbtT6r73U7i-heh-37" vertex="1" connectable="0">
          <mxGeometry x="36" y="77.5" width="45" height="45" as="geometry" />
        </mxCell>
        <mxCell id="Xx0-FAbtT6r73U7i-heh-42" value="" style="ellipse;whiteSpace=wrap;html=1;aspect=fixed;strokeColor=light-dark(#11ff00, #ededed);strokeWidth=3;" parent="Xx0-FAbtT6r73U7i-heh-41" vertex="1">
          <mxGeometry width="45" height="45" as="geometry" />
        </mxCell>
        <mxCell id="Xx0-FAbtT6r73U7i-heh-43" value="" style="verticalLabelPosition=bottom;html=1;verticalAlign=top;align=center;strokeColor=none;fillColor=#11FF00;shape=mxgraph.azure.message;pointerEvents=1;" parent="Xx0-FAbtT6r73U7i-heh-41" vertex="1">
          <mxGeometry x="5" y="10.629999999999995" width="35" height="23.75" as="geometry" />
        </mxCell>
        <mxCell id="Xx0-FAbtT6r73U7i-heh-101" value="" style="ellipse;whiteSpace=wrap;html=1;aspect=fixed;strokeColor=light-dark(#FF0800,#EDEDED);strokeWidth=3;" parent="Xx0-FAbtT6r73U7i-heh-37" vertex="1">
          <mxGeometry x="766" y="77.5" width="45" height="45" as="geometry" />
        </mxCell>
        <mxCell id="Xx0-FAbtT6r73U7i-heh-102" value="" style="group;fillColor=none;" parent="Xx0-FAbtT6r73U7i-heh-37" vertex="1" connectable="0">
          <mxGeometry x="766" y="77.5" width="45" height="45" as="geometry" />
        </mxCell>
        <mxCell id="Xx0-FAbtT6r73U7i-heh-103" value="" style="verticalLabelPosition=bottom;html=1;verticalAlign=top;align=center;strokeColor=none;fillColor=#FF0000;shape=mxgraph.azure.message;pointerEvents=1;" parent="Xx0-FAbtT6r73U7i-heh-102" vertex="1">
          <mxGeometry x="5" y="10.629999999999995" width="35" height="23.75" as="geometry" />
        </mxCell>
        <mxCell id="Xx0-FAbtT6r73U7i-heh-114" style="edgeStyle=orthogonalEdgeStyle;rounded=0;orthogonalLoop=1;jettySize=auto;html=1;" parent="Xx0-FAbtT6r73U7i-heh-37" source="Xx0-FAbtT6r73U7i-heh-110" edge="1">
          <mxGeometry relative="1" as="geometry">
            <mxPoint x="766" y="100" as="targetPoint" />
          </mxGeometry>
        </mxCell>
        <mxCell id="Xx0-FAbtT6r73U7i-heh-110" value="O cuidador do idoso precisa inserir a senha da conta para acessas alguns serviços pelo idoso" style="rounded=1;whiteSpace=wrap;html=1;" parent="Xx0-FAbtT6r73U7i-heh-37" vertex="1">
          <mxGeometry x="351" y="60" width="120" height="80" as="geometry" />
        </mxCell>
        <mxCell id="Xx0-FAbtT6r73U7i-heh-105" style="edgeStyle=orthogonalEdgeStyle;rounded=0;orthogonalLoop=1;jettySize=auto;html=1;entryX=0.5;entryY=1;entryDx=0;entryDy=0;dashed=1;" parent="Xx0-FAbtT6r73U7i-heh-28" source="Xx0-FAbtT6r73U7i-heh-39" target="Xx0-FAbtT6r73U7i-heh-49" edge="1">
          <mxGeometry relative="1" as="geometry" />
        </mxCell>
        <mxCell id="Xx0-FAbtT6r73U7i-heh-111" style="edgeStyle=orthogonalEdgeStyle;rounded=0;orthogonalLoop=1;jettySize=auto;html=1;entryX=0.5;entryY=0;entryDx=0;entryDy=0;dashed=1;" parent="Xx0-FAbtT6r73U7i-heh-28" source="Xx0-FAbtT6r73U7i-heh-106" target="Xx0-FAbtT6r73U7i-heh-110" edge="1">
          <mxGeometry relative="1" as="geometry" />
        </mxCell>
      </root>
    </mxGraphModel>
  </diagram>
  <diagram id="Rlx8zjWdxOWhtbCqs5U9" name="Página-2">
    <mxGraphModel dx="1273" dy="2293" grid="1" gridSize="10" guides="1" tooltips="1" connect="1" arrows="1" fold="1" page="1" pageScale="1" pageWidth="827" pageHeight="1169" math="0" shadow="0">
      <root>
        <mxCell id="0" />
        <mxCell id="1" parent="0" />
        <mxCell id="9apo3Ohb2s28PIl6rShY-1" value="Processo de Negócio de salvar contato de emergência&amp;nbsp;(To Be)" style="swimlane;whiteSpace=wrap;html=1;startSize=23;" vertex="1" parent="1">
          <mxGeometry x="1150" y="-90" width="1080" height="841" as="geometry" />
        </mxCell>
        <mxCell id="9apo3Ohb2s28PIl6rShY-2" value="Cuidador de idoso" style="swimlane;horizontal=0;whiteSpace=wrap;html=1;" vertex="1" parent="9apo3Ohb2s28PIl6rShY-1">
          <mxGeometry x="130" y="80" width="830" height="210" as="geometry" />
        </mxCell>
        <mxCell id="9apo3Ohb2s28PIl6rShY-3" style="edgeStyle=orthogonalEdgeStyle;rounded=0;orthogonalLoop=1;jettySize=auto;html=1;exitX=1;exitY=0.5;exitDx=0;exitDy=0;entryX=0;entryY=0.5;entryDx=0;entryDy=0;" edge="1" parent="9apo3Ohb2s28PIl6rShY-2" source="9apo3Ohb2s28PIl6rShY-4" target="9apo3Ohb2s28PIl6rShY-6">
          <mxGeometry relative="1" as="geometry" />
        </mxCell>
        <mxCell id="9apo3Ohb2s28PIl6rShY-4" value="" style="ellipse;whiteSpace=wrap;html=1;aspect=fixed;strokeColor=light-dark(#11ff00, #ededed);strokeWidth=3;" vertex="1" parent="9apo3Ohb2s28PIl6rShY-2">
          <mxGeometry x="40" y="82.5" width="45" height="45" as="geometry" />
        </mxCell>
        <mxCell id="9apo3Ohb2s28PIl6rShY-5" style="edgeStyle=orthogonalEdgeStyle;rounded=0;orthogonalLoop=1;jettySize=auto;html=1;entryX=0;entryY=0.5;entryDx=0;entryDy=0;" edge="1" parent="9apo3Ohb2s28PIl6rShY-2" source="9apo3Ohb2s28PIl6rShY-6" target="9apo3Ohb2s28PIl6rShY-8">
          <mxGeometry relative="1" as="geometry" />
        </mxCell>
        <mxCell id="9apo3Ohb2s28PIl6rShY-6" value="O cuidador deseja salvar o seu número como contato de emergência no celular do idoso para receber notificação de emergências do SeniorAssist" style="rounded=1;whiteSpace=wrap;html=1;" vertex="1" parent="9apo3Ohb2s28PIl6rShY-2">
          <mxGeometry x="153" y="48.75" width="157" height="112.5" as="geometry" />
        </mxCell>
        <mxCell id="9apo3Ohb2s28PIl6rShY-7" style="edgeStyle=orthogonalEdgeStyle;rounded=0;orthogonalLoop=1;jettySize=auto;html=1;entryX=0;entryY=0.5;entryDx=0;entryDy=0;" edge="1" parent="9apo3Ohb2s28PIl6rShY-2" source="9apo3Ohb2s28PIl6rShY-8" target="9apo3Ohb2s28PIl6rShY-9">
          <mxGeometry relative="1" as="geometry" />
        </mxCell>
        <mxCell id="9apo3Ohb2s28PIl6rShY-8" value="O cuidador de idoso insere seu número de celular no smartwatch" style="rounded=1;whiteSpace=wrap;html=1;" vertex="1" parent="9apo3Ohb2s28PIl6rShY-2">
          <mxGeometry x="355" y="62.5" width="120" height="85" as="geometry" />
        </mxCell>
        <mxCell id="9apo3Ohb2s28PIl6rShY-9" value="" style="ellipse;whiteSpace=wrap;html=1;aspect=fixed;strokeColor=light-dark(#FF0800,#EDEDED);strokeWidth=3;" vertex="1" parent="9apo3Ohb2s28PIl6rShY-2">
          <mxGeometry x="660" y="82.5" width="45" height="45" as="geometry" />
        </mxCell>
        <mxCell id="9apo3Ohb2s28PIl6rShY-10" style="edgeStyle=orthogonalEdgeStyle;rounded=0;orthogonalLoop=1;jettySize=auto;html=1;entryX=0.75;entryY=0;entryDx=0;entryDy=0;dashed=1;exitX=0.75;exitY=1;exitDx=0;exitDy=0;" edge="1" parent="9apo3Ohb2s28PIl6rShY-1" source="9apo3Ohb2s28PIl6rShY-8" target="9apo3Ohb2s28PIl6rShY-21">
          <mxGeometry relative="1" as="geometry">
            <mxPoint x="603" y="241" as="sourcePoint" />
            <Array as="points">
              <mxPoint x="583" y="228" />
              <mxPoint x="583" y="371" />
              <mxPoint x="843" y="371" />
              <mxPoint x="843" y="601" />
              <mxPoint x="712" y="601" />
            </Array>
          </mxGeometry>
        </mxCell>
        <mxCell id="9apo3Ohb2s28PIl6rShY-11" value="SeniroAssist" style="swimlane;horizontal=0;whiteSpace=wrap;html=1;" vertex="1" parent="9apo3Ohb2s28PIl6rShY-1">
          <mxGeometry x="130" y="571" width="830" height="200" as="geometry" />
        </mxCell>
        <mxCell id="9apo3Ohb2s28PIl6rShY-12" value="" style="ellipse;whiteSpace=wrap;html=1;aspect=fixed;strokeColor=light-dark(#FF0800,#EDEDED);strokeWidth=3;" vertex="1" parent="9apo3Ohb2s28PIl6rShY-11">
          <mxGeometry x="654" y="77.50999999999999" width="45" height="45" as="geometry" />
        </mxCell>
        <mxCell id="9apo3Ohb2s28PIl6rShY-13" style="edgeStyle=orthogonalEdgeStyle;rounded=0;orthogonalLoop=1;jettySize=auto;html=1;exitX=1;exitY=0.5;exitDx=0;exitDy=0;entryX=0;entryY=0.5;entryDx=0;entryDy=0;" edge="1" parent="9apo3Ohb2s28PIl6rShY-11">
          <mxGeometry relative="1" as="geometry">
            <mxPoint x="455.0000000000032" y="100" as="sourcePoint" />
            <mxPoint x="490" y="100" as="targetPoint" />
          </mxGeometry>
        </mxCell>
        <mxCell id="9apo3Ohb2s28PIl6rShY-14" style="edgeStyle=orthogonalEdgeStyle;rounded=0;orthogonalLoop=1;jettySize=auto;html=1;entryX=0;entryY=0.5;entryDx=0;entryDy=0;" edge="1" parent="9apo3Ohb2s28PIl6rShY-11">
          <mxGeometry relative="1" as="geometry">
            <mxPoint x="654.0000000000146" y="100" as="targetPoint" />
            <mxPoint x="610" y="100" as="sourcePoint" />
          </mxGeometry>
        </mxCell>
        <mxCell id="9apo3Ohb2s28PIl6rShY-15" value="" style="ellipse;whiteSpace=wrap;html=1;aspect=fixed;strokeColor=light-dark(#11ff00, #ededed);strokeWidth=3;" vertex="1" parent="9apo3Ohb2s28PIl6rShY-11">
          <mxGeometry x="410" y="77.5" width="45" height="45" as="geometry" />
        </mxCell>
        <mxCell id="9apo3Ohb2s28PIl6rShY-16" value="" style="group" connectable="0" vertex="1" parent="9apo3Ohb2s28PIl6rShY-11">
          <mxGeometry x="410" y="77.5" width="45" height="45" as="geometry" />
        </mxCell>
        <mxCell id="9apo3Ohb2s28PIl6rShY-17" value="" style="ellipse;whiteSpace=wrap;html=1;aspect=fixed;strokeColor=light-dark(#11ff00, #ededed);strokeWidth=3;" vertex="1" parent="9apo3Ohb2s28PIl6rShY-16">
          <mxGeometry width="45" height="45" as="geometry" />
        </mxCell>
        <mxCell id="9apo3Ohb2s28PIl6rShY-18" value="" style="verticalLabelPosition=bottom;html=1;verticalAlign=top;align=center;strokeColor=none;fillColor=#11FF00;shape=mxgraph.azure.message;pointerEvents=1;" vertex="1" parent="9apo3Ohb2s28PIl6rShY-16">
          <mxGeometry x="5" y="10.629999999999995" width="35" height="23.75" as="geometry" />
        </mxCell>
        <mxCell id="9apo3Ohb2s28PIl6rShY-19" value="" style="group;fillColor=none;" connectable="0" vertex="1" parent="9apo3Ohb2s28PIl6rShY-11">
          <mxGeometry x="654" y="77.50999999999999" width="45" height="45" as="geometry" />
        </mxCell>
        <mxCell id="9apo3Ohb2s28PIl6rShY-20" value="" style="verticalLabelPosition=bottom;html=1;verticalAlign=top;align=center;strokeColor=none;fillColor=#FF0000;shape=mxgraph.azure.message;pointerEvents=1;" vertex="1" parent="9apo3Ohb2s28PIl6rShY-19">
          <mxGeometry x="5" y="10.629999999999995" width="35" height="23.75" as="geometry" />
        </mxCell>
        <mxCell id="9apo3Ohb2s28PIl6rShY-21" value="O sistema recebe essas informações e armazena caso o SeniorAssist perceber alguma instabilidade nos sinais vitais do usuário" style="rounded=1;whiteSpace=wrap;html=1;" vertex="1" parent="9apo3Ohb2s28PIl6rShY-11">
          <mxGeometry x="485" y="60.01" width="130" height="99.99" as="geometry" />
        </mxCell>
        <mxCell id="9apo3Ohb2s28PIl6rShY-22" value="Usuário" style="swimlane;horizontal=0;whiteSpace=wrap;html=1;" vertex="1" parent="9apo3Ohb2s28PIl6rShY-1">
          <mxGeometry x="130" y="315.5" width="870" height="210" as="geometry" />
        </mxCell>
        <mxCell id="9apo3Ohb2s28PIl6rShY-23" style="edgeStyle=orthogonalEdgeStyle;rounded=0;orthogonalLoop=1;jettySize=auto;html=1;entryX=0;entryY=0.5;entryDx=0;entryDy=0;" edge="1" parent="9apo3Ohb2s28PIl6rShY-22" source="9apo3Ohb2s28PIl6rShY-24" target="9apo3Ohb2s28PIl6rShY-27">
          <mxGeometry relative="1" as="geometry" />
        </mxCell>
        <mxCell id="9apo3Ohb2s28PIl6rShY-24" value="" style="ellipse;whiteSpace=wrap;html=1;aspect=fixed;strokeColor=light-dark(#11ff00, #ededed);strokeWidth=3;" vertex="1" parent="9apo3Ohb2s28PIl6rShY-22">
          <mxGeometry x="40" y="82.5" width="45" height="45" as="geometry" />
        </mxCell>
        <mxCell id="9apo3Ohb2s28PIl6rShY-25" value="" style="ellipse;whiteSpace=wrap;html=1;aspect=fixed;strokeColor=light-dark(#FF0800,#EDEDED);strokeWidth=3;" vertex="1" parent="9apo3Ohb2s28PIl6rShY-22">
          <mxGeometry x="770" y="82.5" width="45" height="45" as="geometry" />
        </mxCell>
        <mxCell id="9apo3Ohb2s28PIl6rShY-26" style="edgeStyle=orthogonalEdgeStyle;rounded=0;orthogonalLoop=1;jettySize=auto;html=1;entryX=0;entryY=0.5;entryDx=0;entryDy=0;" edge="1" parent="9apo3Ohb2s28PIl6rShY-22" source="9apo3Ohb2s28PIl6rShY-27" target="9apo3Ohb2s28PIl6rShY-31">
          <mxGeometry relative="1" as="geometry" />
        </mxCell>
        <mxCell id="9apo3Ohb2s28PIl6rShY-27" value="O idoso quer ter um contato de emergência no seu celular" style="rounded=1;whiteSpace=wrap;html=1;" vertex="1" parent="9apo3Ohb2s28PIl6rShY-22">
          <mxGeometry x="130" y="65" width="120" height="80" as="geometry" />
        </mxCell>
        <mxCell id="9apo3Ohb2s28PIl6rShY-28" style="edgeStyle=orthogonalEdgeStyle;rounded=0;orthogonalLoop=1;jettySize=auto;html=1;entryX=0;entryY=0.5;entryDx=0;entryDy=0;" edge="1" parent="9apo3Ohb2s28PIl6rShY-22" source="9apo3Ohb2s28PIl6rShY-29" target="9apo3Ohb2s28PIl6rShY-25">
          <mxGeometry relative="1" as="geometry" />
        </mxCell>
        <mxCell id="9apo3Ohb2s28PIl6rShY-29" value="O idoso precisa salvar o contato de algum parente ou da ambulância" style="rounded=1;whiteSpace=wrap;html=1;" vertex="1" parent="9apo3Ohb2s28PIl6rShY-22">
          <mxGeometry x="580" y="65" width="120" height="80" as="geometry" />
        </mxCell>
        <mxCell id="9apo3Ohb2s28PIl6rShY-30" style="edgeStyle=orthogonalEdgeStyle;rounded=0;orthogonalLoop=1;jettySize=auto;html=1;entryX=0;entryY=0.5;entryDx=0;entryDy=0;" edge="1" parent="9apo3Ohb2s28PIl6rShY-22" source="9apo3Ohb2s28PIl6rShY-31" target="9apo3Ohb2s28PIl6rShY-29">
          <mxGeometry relative="1" as="geometry" />
        </mxCell>
        <mxCell id="9apo3Ohb2s28PIl6rShY-31" value="" style="rhombus;whiteSpace=wrap;html=1;fillColor=#ffff88;strokeColor=#36393d;" vertex="1" parent="9apo3Ohb2s28PIl6rShY-22">
          <mxGeometry x="385" y="80" width="60" height="50" as="geometry" />
        </mxCell>
        <mxCell id="9apo3Ohb2s28PIl6rShY-32" value="O idoso está sozinho?" style="text;html=1;align=center;verticalAlign=middle;resizable=0;points=[];autosize=1;strokeColor=none;fillColor=none;" vertex="1" parent="9apo3Ohb2s28PIl6rShY-22">
          <mxGeometry x="253" y="35" width="140" height="30" as="geometry" />
        </mxCell>
        <mxCell id="9apo3Ohb2s28PIl6rShY-33" value="Sim" style="text;html=1;align=center;verticalAlign=middle;resizable=0;points=[];autosize=1;strokeColor=none;fillColor=none;" vertex="1" parent="9apo3Ohb2s28PIl6rShY-22">
          <mxGeometry x="490" y="70" width="40" height="30" as="geometry" />
        </mxCell>
        <mxCell id="9apo3Ohb2s28PIl6rShY-34" value="Não" style="text;html=1;align=center;verticalAlign=middle;resizable=0;points=[];autosize=1;strokeColor=none;fillColor=none;" vertex="1" parent="9apo3Ohb2s28PIl6rShY-22">
          <mxGeometry x="373" y="35" width="50" height="30" as="geometry" />
        </mxCell>
        <mxCell id="9apo3Ohb2s28PIl6rShY-35" style="edgeStyle=orthogonalEdgeStyle;rounded=0;orthogonalLoop=1;jettySize=auto;html=1;entryX=0.5;entryY=0;entryDx=0;entryDy=0;dashed=1;exitX=0.5;exitY=1;exitDx=0;exitDy=0;" edge="1" parent="9apo3Ohb2s28PIl6rShY-1" source="9apo3Ohb2s28PIl6rShY-29" target="9apo3Ohb2s28PIl6rShY-21">
          <mxGeometry relative="1" as="geometry">
            <mxPoint x="595" y="238" as="sourcePoint" />
            <mxPoint x="690" y="641" as="targetPoint" />
            <Array as="points">
              <mxPoint x="770" y="541" />
              <mxPoint x="680" y="541" />
            </Array>
          </mxGeometry>
        </mxCell>
        <mxCell id="9apo3Ohb2s28PIl6rShY-36" style="edgeStyle=orthogonalEdgeStyle;rounded=0;orthogonalLoop=1;jettySize=auto;html=1;entryX=0.5;entryY=1;entryDx=0;entryDy=0;dashed=1;exitX=0.5;exitY=0;exitDx=0;exitDy=0;" edge="1" parent="9apo3Ohb2s28PIl6rShY-1" source="9apo3Ohb2s28PIl6rShY-31" target="9apo3Ohb2s28PIl6rShY-8">
          <mxGeometry relative="1" as="geometry">
            <mxPoint x="595" y="238" as="sourcePoint" />
            <mxPoint x="723" y="641" as="targetPoint" />
            <Array as="points">
              <mxPoint x="545" y="227" />
            </Array>
          </mxGeometry>
        </mxCell>
        <mxCell id="9apo3Ohb2s28PIl6rShY-37" value="Processo de Negócio de salvar contato de emergência (As Is)" style="swimlane;whiteSpace=wrap;html=1;startSize=23;" vertex="1" parent="1">
          <mxGeometry x="1150" y="-770" width="1080" height="630" as="geometry" />
        </mxCell>
        <mxCell id="9apo3Ohb2s28PIl6rShY-38" value="Usuário" style="swimlane;horizontal=0;whiteSpace=wrap;html=1;" vertex="1" parent="9apo3Ohb2s28PIl6rShY-37">
          <mxGeometry x="130" y="80" width="870" height="210" as="geometry" />
        </mxCell>
        <mxCell id="9apo3Ohb2s28PIl6rShY-39" style="edgeStyle=orthogonalEdgeStyle;rounded=0;orthogonalLoop=1;jettySize=auto;html=1;entryX=0;entryY=0.5;entryDx=0;entryDy=0;" edge="1" parent="9apo3Ohb2s28PIl6rShY-38" source="9apo3Ohb2s28PIl6rShY-40" target="9apo3Ohb2s28PIl6rShY-43">
          <mxGeometry relative="1" as="geometry" />
        </mxCell>
        <mxCell id="9apo3Ohb2s28PIl6rShY-40" value="" style="ellipse;whiteSpace=wrap;html=1;aspect=fixed;strokeColor=light-dark(#11ff00, #ededed);strokeWidth=3;" vertex="1" parent="9apo3Ohb2s28PIl6rShY-38">
          <mxGeometry x="40" y="82.5" width="45" height="45" as="geometry" />
        </mxCell>
        <mxCell id="9apo3Ohb2s28PIl6rShY-41" value="" style="ellipse;whiteSpace=wrap;html=1;aspect=fixed;strokeColor=light-dark(#FF0800,#EDEDED);strokeWidth=3;" vertex="1" parent="9apo3Ohb2s28PIl6rShY-38">
          <mxGeometry x="770" y="82.5" width="45" height="45" as="geometry" />
        </mxCell>
        <mxCell id="9apo3Ohb2s28PIl6rShY-42" style="edgeStyle=orthogonalEdgeStyle;rounded=0;orthogonalLoop=1;jettySize=auto;html=1;entryX=0;entryY=0.5;entryDx=0;entryDy=0;" edge="1" parent="9apo3Ohb2s28PIl6rShY-38" source="9apo3Ohb2s28PIl6rShY-43" target="9apo3Ohb2s28PIl6rShY-47">
          <mxGeometry relative="1" as="geometry" />
        </mxCell>
        <mxCell id="9apo3Ohb2s28PIl6rShY-43" value="O idoso quer ter um contato de emergência no seu celular" style="rounded=1;whiteSpace=wrap;html=1;" vertex="1" parent="9apo3Ohb2s28PIl6rShY-38">
          <mxGeometry x="130" y="65" width="120" height="80" as="geometry" />
        </mxCell>
        <mxCell id="9apo3Ohb2s28PIl6rShY-44" style="edgeStyle=orthogonalEdgeStyle;rounded=0;orthogonalLoop=1;jettySize=auto;html=1;entryX=0;entryY=0.5;entryDx=0;entryDy=0;" edge="1" parent="9apo3Ohb2s28PIl6rShY-38" source="9apo3Ohb2s28PIl6rShY-45" target="9apo3Ohb2s28PIl6rShY-41">
          <mxGeometry relative="1" as="geometry" />
        </mxCell>
        <mxCell id="9apo3Ohb2s28PIl6rShY-45" value="O idoso precisa salvar o contato da ambulância&amp;nbsp;" style="rounded=1;whiteSpace=wrap;html=1;" vertex="1" parent="9apo3Ohb2s28PIl6rShY-38">
          <mxGeometry x="580" y="65" width="120" height="80" as="geometry" />
        </mxCell>
        <mxCell id="9apo3Ohb2s28PIl6rShY-46" style="edgeStyle=orthogonalEdgeStyle;rounded=0;orthogonalLoop=1;jettySize=auto;html=1;entryX=0;entryY=0.5;entryDx=0;entryDy=0;" edge="1" parent="9apo3Ohb2s28PIl6rShY-38" source="9apo3Ohb2s28PIl6rShY-47" target="9apo3Ohb2s28PIl6rShY-45">
          <mxGeometry relative="1" as="geometry" />
        </mxCell>
        <mxCell id="9apo3Ohb2s28PIl6rShY-47" value="" style="rhombus;whiteSpace=wrap;html=1;fillColor=#ffff88;strokeColor=#36393d;" vertex="1" parent="9apo3Ohb2s28PIl6rShY-38">
          <mxGeometry x="385" y="80" width="60" height="50" as="geometry" />
        </mxCell>
        <mxCell id="9apo3Ohb2s28PIl6rShY-48" value="O idoso está sozinho?" style="text;html=1;align=center;verticalAlign=middle;resizable=0;points=[];autosize=1;strokeColor=none;fillColor=none;" vertex="1" parent="9apo3Ohb2s28PIl6rShY-38">
          <mxGeometry x="345" y="40" width="140" height="30" as="geometry" />
        </mxCell>
        <mxCell id="9apo3Ohb2s28PIl6rShY-49" value="Sim" style="text;html=1;align=center;verticalAlign=middle;resizable=0;points=[];autosize=1;strokeColor=none;fillColor=none;" vertex="1" parent="9apo3Ohb2s28PIl6rShY-38">
          <mxGeometry x="490" y="70" width="40" height="30" as="geometry" />
        </mxCell>
        <mxCell id="9apo3Ohb2s28PIl6rShY-50" value="Não" style="text;html=1;align=center;verticalAlign=middle;resizable=0;points=[];autosize=1;strokeColor=none;fillColor=none;" vertex="1" parent="9apo3Ohb2s28PIl6rShY-38">
          <mxGeometry x="355" y="150" width="50" height="30" as="geometry" />
        </mxCell>
        <mxCell id="9apo3Ohb2s28PIl6rShY-51" value="Cuidador do idoso" style="swimlane;horizontal=0;whiteSpace=wrap;html=1;" vertex="1" parent="9apo3Ohb2s28PIl6rShY-37">
          <mxGeometry x="134" y="370" width="866" height="200" as="geometry" />
        </mxCell>
        <mxCell id="9apo3Ohb2s28PIl6rShY-52" style="edgeStyle=orthogonalEdgeStyle;rounded=0;orthogonalLoop=1;jettySize=auto;html=1;exitX=1;exitY=0.5;exitDx=0;exitDy=0;entryX=0;entryY=0.5;entryDx=0;entryDy=0;" edge="1" parent="9apo3Ohb2s28PIl6rShY-51" target="9apo3Ohb2s28PIl6rShY-54">
          <mxGeometry relative="1" as="geometry">
            <mxPoint x="81.00000000000318" y="100" as="sourcePoint" />
          </mxGeometry>
        </mxCell>
        <mxCell id="9apo3Ohb2s28PIl6rShY-53" style="edgeStyle=orthogonalEdgeStyle;rounded=0;orthogonalLoop=1;jettySize=auto;html=1;entryX=0;entryY=0.5;entryDx=0;entryDy=0;" edge="1" parent="9apo3Ohb2s28PIl6rShY-51" source="9apo3Ohb2s28PIl6rShY-54" target="9apo3Ohb2s28PIl6rShY-63">
          <mxGeometry relative="1" as="geometry" />
        </mxCell>
        <mxCell id="9apo3Ohb2s28PIl6rShY-54" value="O cuidador deseja salvar o seu número como contato de emergência no celular do idoso" style="rounded=1;whiteSpace=wrap;html=1;" vertex="1" parent="9apo3Ohb2s28PIl6rShY-51">
          <mxGeometry x="126" y="60" width="120" height="80" as="geometry" />
        </mxCell>
        <mxCell id="9apo3Ohb2s28PIl6rShY-55" value="" style="ellipse;whiteSpace=wrap;html=1;aspect=fixed;strokeColor=light-dark(#11ff00, #ededed);strokeWidth=3;" vertex="1" parent="9apo3Ohb2s28PIl6rShY-51">
          <mxGeometry x="36" y="77.5" width="45" height="45" as="geometry" />
        </mxCell>
        <mxCell id="9apo3Ohb2s28PIl6rShY-56" value="" style="group" connectable="0" vertex="1" parent="9apo3Ohb2s28PIl6rShY-51">
          <mxGeometry x="36" y="77.5" width="45" height="45" as="geometry" />
        </mxCell>
        <mxCell id="9apo3Ohb2s28PIl6rShY-57" value="" style="ellipse;whiteSpace=wrap;html=1;aspect=fixed;strokeColor=light-dark(#11ff00, #ededed);strokeWidth=3;" vertex="1" parent="9apo3Ohb2s28PIl6rShY-56">
          <mxGeometry width="45" height="45" as="geometry" />
        </mxCell>
        <mxCell id="9apo3Ohb2s28PIl6rShY-58" value="" style="verticalLabelPosition=bottom;html=1;verticalAlign=top;align=center;strokeColor=none;fillColor=#11FF00;shape=mxgraph.azure.message;pointerEvents=1;" vertex="1" parent="9apo3Ohb2s28PIl6rShY-56">
          <mxGeometry x="5" y="10.629999999999995" width="35" height="23.75" as="geometry" />
        </mxCell>
        <mxCell id="9apo3Ohb2s28PIl6rShY-59" value="" style="ellipse;whiteSpace=wrap;html=1;aspect=fixed;strokeColor=light-dark(#FF0800,#EDEDED);strokeWidth=3;" vertex="1" parent="9apo3Ohb2s28PIl6rShY-51">
          <mxGeometry x="766" y="77.5" width="45" height="45" as="geometry" />
        </mxCell>
        <mxCell id="9apo3Ohb2s28PIl6rShY-60" value="" style="group;fillColor=none;" connectable="0" vertex="1" parent="9apo3Ohb2s28PIl6rShY-51">
          <mxGeometry x="766" y="77.5" width="45" height="45" as="geometry" />
        </mxCell>
        <mxCell id="9apo3Ohb2s28PIl6rShY-61" value="" style="verticalLabelPosition=bottom;html=1;verticalAlign=top;align=center;strokeColor=none;fillColor=#FF0000;shape=mxgraph.azure.message;pointerEvents=1;" vertex="1" parent="9apo3Ohb2s28PIl6rShY-60">
          <mxGeometry x="5" y="10.629999999999995" width="35" height="23.75" as="geometry" />
        </mxCell>
        <mxCell id="9apo3Ohb2s28PIl6rShY-62" style="edgeStyle=orthogonalEdgeStyle;rounded=0;orthogonalLoop=1;jettySize=auto;html=1;" edge="1" parent="9apo3Ohb2s28PIl6rShY-51" source="9apo3Ohb2s28PIl6rShY-63">
          <mxGeometry relative="1" as="geometry">
            <mxPoint x="766" y="100" as="targetPoint" />
          </mxGeometry>
        </mxCell>
        <mxCell id="9apo3Ohb2s28PIl6rShY-63" value="O cuidador do idoso precisa colocar seu número como contato de emergência no celular do idoso" style="rounded=1;whiteSpace=wrap;html=1;" vertex="1" parent="9apo3Ohb2s28PIl6rShY-51">
          <mxGeometry x="351" y="60" width="120" height="80" as="geometry" />
        </mxCell>
        <mxCell id="9apo3Ohb2s28PIl6rShY-64" style="edgeStyle=orthogonalEdgeStyle;rounded=0;orthogonalLoop=1;jettySize=auto;html=1;entryX=0.5;entryY=1;entryDx=0;entryDy=0;dashed=1;" edge="1" parent="9apo3Ohb2s28PIl6rShY-37" source="9apo3Ohb2s28PIl6rShY-54" target="9apo3Ohb2s28PIl6rShY-43">
          <mxGeometry relative="1" as="geometry" />
        </mxCell>
        <mxCell id="9apo3Ohb2s28PIl6rShY-65" style="edgeStyle=orthogonalEdgeStyle;rounded=0;orthogonalLoop=1;jettySize=auto;html=1;entryX=0.5;entryY=0;entryDx=0;entryDy=0;dashed=1;" edge="1" parent="9apo3Ohb2s28PIl6rShY-37" source="9apo3Ohb2s28PIl6rShY-47" target="9apo3Ohb2s28PIl6rShY-63">
          <mxGeometry relative="1" as="geometry" />
        </mxCell>
      </root>
    </mxGraphModel>
  </diagram>
  <diagram id="xKd5RligrCxzBh-gEfu3" name="Página-3">
    <mxGraphModel dx="-154" dy="1972" grid="1" gridSize="10" guides="1" tooltips="1" connect="1" arrows="1" fold="1" page="1" pageScale="1" pageWidth="827" pageHeight="1169" math="0" shadow="0">
      <root>
        <mxCell id="0" />
        <mxCell id="1" parent="0" />
        <mxCell id="kaySrpM_DmR3XwPyY5lq-1" value="Processo de Negócio de alerta de estado de saúde do idoso (As Is)" style="swimlane;whiteSpace=wrap;html=1;startSize=23;" vertex="1" parent="1">
          <mxGeometry x="1860" y="-1030" width="900" height="630" as="geometry" />
        </mxCell>
        <mxCell id="kaySrpM_DmR3XwPyY5lq-2" value="Usuário" style="swimlane;horizontal=0;whiteSpace=wrap;html=1;startSize=23;" vertex="1" parent="kaySrpM_DmR3XwPyY5lq-1">
          <mxGeometry x="130" y="80" width="630" height="210" as="geometry" />
        </mxCell>
        <mxCell id="kaySrpM_DmR3XwPyY5lq-3" style="edgeStyle=orthogonalEdgeStyle;rounded=0;orthogonalLoop=1;jettySize=auto;html=1;entryX=0;entryY=0.5;entryDx=0;entryDy=0;" edge="1" parent="kaySrpM_DmR3XwPyY5lq-2" source="kaySrpM_DmR3XwPyY5lq-4">
          <mxGeometry relative="1" as="geometry">
            <mxPoint x="130" y="105" as="targetPoint" />
          </mxGeometry>
        </mxCell>
        <mxCell id="kaySrpM_DmR3XwPyY5lq-4" value="" style="ellipse;whiteSpace=wrap;html=1;aspect=fixed;strokeColor=light-dark(#11ff00, #ededed);strokeWidth=3;" vertex="1" parent="kaySrpM_DmR3XwPyY5lq-2">
          <mxGeometry x="40" y="82.5" width="45" height="45" as="geometry" />
        </mxCell>
        <mxCell id="kaySrpM_DmR3XwPyY5lq-5" value="" style="ellipse;whiteSpace=wrap;html=1;aspect=fixed;strokeColor=light-dark(#FF0800,#EDEDED);strokeWidth=3;" vertex="1" parent="kaySrpM_DmR3XwPyY5lq-2">
          <mxGeometry x="530" y="82.5" width="45" height="45" as="geometry" />
        </mxCell>
        <mxCell id="kaySrpM_DmR3XwPyY5lq-6" style="edgeStyle=orthogonalEdgeStyle;rounded=0;orthogonalLoop=1;jettySize=auto;html=1;entryX=0;entryY=0.5;entryDx=0;entryDy=0;" edge="1" parent="kaySrpM_DmR3XwPyY5lq-2" source="kaySrpM_DmR3XwPyY5lq-7" target="kaySrpM_DmR3XwPyY5lq-9">
          <mxGeometry relative="1" as="geometry" />
        </mxCell>
        <mxCell id="kaySrpM_DmR3XwPyY5lq-7" value="Idoso aceita a ligação" style="rounded=1;whiteSpace=wrap;html=1;" vertex="1" parent="kaySrpM_DmR3XwPyY5lq-2">
          <mxGeometry x="130" y="75" width="120" height="60" as="geometry" />
        </mxCell>
        <mxCell id="kaySrpM_DmR3XwPyY5lq-8" style="edgeStyle=orthogonalEdgeStyle;rounded=0;orthogonalLoop=1;jettySize=auto;html=1;entryX=0;entryY=0.5;entryDx=0;entryDy=0;" edge="1" parent="kaySrpM_DmR3XwPyY5lq-2" source="kaySrpM_DmR3XwPyY5lq-9" target="kaySrpM_DmR3XwPyY5lq-5">
          <mxGeometry relative="1" as="geometry" />
        </mxCell>
        <mxCell id="kaySrpM_DmR3XwPyY5lq-9" value="Idoso responde as perguntas&amp;nbsp;" style="rounded=1;whiteSpace=wrap;html=1;" vertex="1" parent="kaySrpM_DmR3XwPyY5lq-2">
          <mxGeometry x="330" y="75" width="120" height="60" as="geometry" />
        </mxCell>
        <mxCell id="kaySrpM_DmR3XwPyY5lq-10" value="Cuidador do idoso" style="swimlane;horizontal=0;whiteSpace=wrap;html=1;" vertex="1" parent="kaySrpM_DmR3XwPyY5lq-1">
          <mxGeometry x="134" y="370" width="626" height="200" as="geometry" />
        </mxCell>
        <mxCell id="kaySrpM_DmR3XwPyY5lq-11" style="edgeStyle=orthogonalEdgeStyle;rounded=0;orthogonalLoop=1;jettySize=auto;html=1;exitX=1;exitY=0.5;exitDx=0;exitDy=0;entryX=0;entryY=0.5;entryDx=0;entryDy=0;" edge="1" parent="kaySrpM_DmR3XwPyY5lq-10">
          <mxGeometry relative="1" as="geometry">
            <mxPoint x="81.00000000000318" y="100" as="sourcePoint" />
            <mxPoint x="126" y="100" as="targetPoint" />
          </mxGeometry>
        </mxCell>
        <mxCell id="kaySrpM_DmR3XwPyY5lq-12" value="" style="ellipse;whiteSpace=wrap;html=1;aspect=fixed;strokeColor=light-dark(#11ff00, #ededed);strokeWidth=3;" vertex="1" parent="kaySrpM_DmR3XwPyY5lq-10">
          <mxGeometry x="36" y="77.5" width="45" height="45" as="geometry" />
        </mxCell>
        <mxCell id="kaySrpM_DmR3XwPyY5lq-13" value="" style="group" connectable="0" vertex="1" parent="kaySrpM_DmR3XwPyY5lq-10">
          <mxGeometry x="36" y="77.5" width="45" height="45" as="geometry" />
        </mxCell>
        <mxCell id="kaySrpM_DmR3XwPyY5lq-14" value="" style="ellipse;whiteSpace=wrap;html=1;aspect=fixed;strokeColor=light-dark(#11ff00, #ededed);strokeWidth=3;" vertex="1" parent="kaySrpM_DmR3XwPyY5lq-13">
          <mxGeometry width="45" height="45" as="geometry" />
        </mxCell>
        <mxCell id="kaySrpM_DmR3XwPyY5lq-15" value="" style="verticalLabelPosition=bottom;html=1;verticalAlign=top;align=center;strokeColor=none;fillColor=#11FF00;shape=mxgraph.azure.message;pointerEvents=1;" vertex="1" parent="kaySrpM_DmR3XwPyY5lq-13">
          <mxGeometry x="5" y="10.629999999999995" width="35" height="23.75" as="geometry" />
        </mxCell>
        <mxCell id="kaySrpM_DmR3XwPyY5lq-16" value="" style="ellipse;whiteSpace=wrap;html=1;aspect=fixed;strokeColor=light-dark(#FF0800,#EDEDED);strokeWidth=3;" vertex="1" parent="kaySrpM_DmR3XwPyY5lq-10">
          <mxGeometry x="526" y="76.88" width="45" height="45" as="geometry" />
        </mxCell>
        <mxCell id="kaySrpM_DmR3XwPyY5lq-17" value="" style="group;fillColor=none;" connectable="0" vertex="1" parent="kaySrpM_DmR3XwPyY5lq-10">
          <mxGeometry x="526" y="76.88" width="45" height="45" as="geometry" />
        </mxCell>
        <mxCell id="kaySrpM_DmR3XwPyY5lq-18" value="" style="verticalLabelPosition=bottom;html=1;verticalAlign=top;align=center;strokeColor=none;fillColor=#FF0000;shape=mxgraph.azure.message;pointerEvents=1;" vertex="1" parent="kaySrpM_DmR3XwPyY5lq-17">
          <mxGeometry x="5" y="10.629999999999995" width="35" height="23.75" as="geometry" />
        </mxCell>
        <mxCell id="kaySrpM_DmR3XwPyY5lq-19" style="edgeStyle=orthogonalEdgeStyle;rounded=0;orthogonalLoop=1;jettySize=auto;html=1;entryX=0;entryY=0.5;entryDx=0;entryDy=0;" edge="1" parent="kaySrpM_DmR3XwPyY5lq-10" source="kaySrpM_DmR3XwPyY5lq-20" target="kaySrpM_DmR3XwPyY5lq-22">
          <mxGeometry relative="1" as="geometry" />
        </mxCell>
        <mxCell id="kaySrpM_DmR3XwPyY5lq-20" value="Cuidador realiza uma chamada de vídeo" style="rounded=1;whiteSpace=wrap;html=1;" vertex="1" parent="kaySrpM_DmR3XwPyY5lq-10">
          <mxGeometry x="126" y="70" width="120" height="60" as="geometry" />
        </mxCell>
        <mxCell id="kaySrpM_DmR3XwPyY5lq-21" style="edgeStyle=orthogonalEdgeStyle;rounded=0;orthogonalLoop=1;jettySize=auto;html=1;" edge="1" parent="kaySrpM_DmR3XwPyY5lq-10" source="kaySrpM_DmR3XwPyY5lq-22">
          <mxGeometry relative="1" as="geometry">
            <mxPoint x="526" y="100.00000000000023" as="targetPoint" />
          </mxGeometry>
        </mxCell>
        <mxCell id="kaySrpM_DmR3XwPyY5lq-22" value="Realizar perguntas relacionadas a saúde do idoso" style="rounded=1;whiteSpace=wrap;html=1;" vertex="1" parent="kaySrpM_DmR3XwPyY5lq-10">
          <mxGeometry x="326" y="70" width="120" height="60" as="geometry" />
        </mxCell>
        <mxCell id="kaySrpM_DmR3XwPyY5lq-23" style="edgeStyle=orthogonalEdgeStyle;rounded=0;orthogonalLoop=1;jettySize=auto;html=1;exitX=0.25;exitY=0;exitDx=0;exitDy=0;entryX=0.25;entryY=1;entryDx=0;entryDy=0;dashed=1;" edge="1" parent="kaySrpM_DmR3XwPyY5lq-1" source="kaySrpM_DmR3XwPyY5lq-20" target="kaySrpM_DmR3XwPyY5lq-7">
          <mxGeometry relative="1" as="geometry" />
        </mxCell>
        <mxCell id="kaySrpM_DmR3XwPyY5lq-24" style="edgeStyle=orthogonalEdgeStyle;rounded=0;orthogonalLoop=1;jettySize=auto;html=1;exitX=0.75;exitY=1;exitDx=0;exitDy=0;entryX=0.75;entryY=0;entryDx=0;entryDy=0;dashed=1;" edge="1" parent="kaySrpM_DmR3XwPyY5lq-1" source="kaySrpM_DmR3XwPyY5lq-7" target="kaySrpM_DmR3XwPyY5lq-20">
          <mxGeometry relative="1" as="geometry" />
        </mxCell>
        <mxCell id="kaySrpM_DmR3XwPyY5lq-25" style="edgeStyle=orthogonalEdgeStyle;rounded=0;orthogonalLoop=1;jettySize=auto;html=1;exitX=0.25;exitY=0;exitDx=0;exitDy=0;entryX=0.25;entryY=1;entryDx=0;entryDy=0;dashed=1;" edge="1" parent="kaySrpM_DmR3XwPyY5lq-1" source="kaySrpM_DmR3XwPyY5lq-22" target="kaySrpM_DmR3XwPyY5lq-9">
          <mxGeometry relative="1" as="geometry" />
        </mxCell>
        <mxCell id="kaySrpM_DmR3XwPyY5lq-26" style="edgeStyle=orthogonalEdgeStyle;rounded=0;orthogonalLoop=1;jettySize=auto;html=1;exitX=0.75;exitY=1;exitDx=0;exitDy=0;entryX=0.75;entryY=0;entryDx=0;entryDy=0;dashed=1;" edge="1" parent="kaySrpM_DmR3XwPyY5lq-1" source="kaySrpM_DmR3XwPyY5lq-9" target="kaySrpM_DmR3XwPyY5lq-22">
          <mxGeometry relative="1" as="geometry" />
        </mxCell>
        <mxCell id="kaySrpM_DmR3XwPyY5lq-27" value="Processo de Negócio de alerta de estado de saúde do idoso (To Be)" style="swimlane;whiteSpace=wrap;html=1;startSize=23;" vertex="1" parent="1">
          <mxGeometry x="1850" y="-331" width="1240" height="1131" as="geometry" />
        </mxCell>
        <mxCell id="kaySrpM_DmR3XwPyY5lq-28" value="Usuário" style="swimlane;horizontal=0;whiteSpace=wrap;html=1;startSize=23;" vertex="1" parent="kaySrpM_DmR3XwPyY5lq-27">
          <mxGeometry x="130" y="80" width="970" height="220" as="geometry" />
        </mxCell>
        <mxCell id="kaySrpM_DmR3XwPyY5lq-29" style="edgeStyle=orthogonalEdgeStyle;rounded=0;orthogonalLoop=1;jettySize=auto;html=1;exitX=1;exitY=0.5;exitDx=0;exitDy=0;entryX=0;entryY=0.5;entryDx=0;entryDy=0;" edge="1" parent="kaySrpM_DmR3XwPyY5lq-28" source="kaySrpM_DmR3XwPyY5lq-30" target="kaySrpM_DmR3XwPyY5lq-33">
          <mxGeometry relative="1" as="geometry" />
        </mxCell>
        <mxCell id="kaySrpM_DmR3XwPyY5lq-30" value="" style="ellipse;whiteSpace=wrap;html=1;aspect=fixed;strokeColor=light-dark(#11ff00, #ededed);strokeWidth=3;" vertex="1" parent="kaySrpM_DmR3XwPyY5lq-28">
          <mxGeometry x="40" y="90" width="45" height="45" as="geometry" />
        </mxCell>
        <mxCell id="kaySrpM_DmR3XwPyY5lq-31" value="" style="ellipse;whiteSpace=wrap;html=1;aspect=fixed;strokeColor=light-dark(#FF0800,#EDEDED);strokeWidth=3;" vertex="1" parent="kaySrpM_DmR3XwPyY5lq-28">
          <mxGeometry x="880" y="90" width="45" height="45" as="geometry" />
        </mxCell>
        <mxCell id="kaySrpM_DmR3XwPyY5lq-32" style="edgeStyle=orthogonalEdgeStyle;rounded=0;orthogonalLoop=1;jettySize=auto;html=1;entryX=0;entryY=0.5;entryDx=0;entryDy=0;" edge="1" parent="kaySrpM_DmR3XwPyY5lq-28" source="kaySrpM_DmR3XwPyY5lq-33" target="kaySrpM_DmR3XwPyY5lq-31">
          <mxGeometry relative="1" as="geometry" />
        </mxCell>
        <mxCell id="kaySrpM_DmR3XwPyY5lq-33" value="Recebe aviso de que a emergência foi acionada junto com aviso de risco à saúde" style="rounded=1;whiteSpace=wrap;html=1;" vertex="1" parent="kaySrpM_DmR3XwPyY5lq-28">
          <mxGeometry x="430" y="75" width="120" height="75" as="geometry" />
        </mxCell>
        <mxCell id="kaySrpM_DmR3XwPyY5lq-34" value="Cuidador do idoso" style="swimlane;horizontal=0;whiteSpace=wrap;html=1;" vertex="1" parent="kaySrpM_DmR3XwPyY5lq-27">
          <mxGeometry x="120" y="821" width="980" height="200" as="geometry" />
        </mxCell>
        <mxCell id="kaySrpM_DmR3XwPyY5lq-35" value="" style="ellipse;whiteSpace=wrap;html=1;aspect=fixed;strokeColor=light-dark(#11ff00, #ededed);strokeWidth=3;" vertex="1" parent="kaySrpM_DmR3XwPyY5lq-34">
          <mxGeometry x="36" y="77.5" width="45" height="45" as="geometry" />
        </mxCell>
        <mxCell id="kaySrpM_DmR3XwPyY5lq-36" value="" style="group" connectable="0" vertex="1" parent="kaySrpM_DmR3XwPyY5lq-34">
          <mxGeometry x="36" y="77.5" width="45" height="45" as="geometry" />
        </mxCell>
        <mxCell id="kaySrpM_DmR3XwPyY5lq-37" value="" style="ellipse;whiteSpace=wrap;html=1;aspect=fixed;strokeColor=light-dark(#11ff00, #ededed);strokeWidth=3;" vertex="1" parent="kaySrpM_DmR3XwPyY5lq-36">
          <mxGeometry width="45" height="45" as="geometry" />
        </mxCell>
        <mxCell id="kaySrpM_DmR3XwPyY5lq-38" value="" style="verticalLabelPosition=bottom;html=1;verticalAlign=top;align=center;strokeColor=none;fillColor=#11FF00;shape=mxgraph.azure.message;pointerEvents=1;" vertex="1" parent="kaySrpM_DmR3XwPyY5lq-36">
          <mxGeometry x="5" y="10.629999999999995" width="35" height="23.75" as="geometry" />
        </mxCell>
        <mxCell id="kaySrpM_DmR3XwPyY5lq-39" value="" style="ellipse;whiteSpace=wrap;html=1;aspect=fixed;strokeColor=light-dark(#FF0800,#EDEDED);strokeWidth=3;" vertex="1" parent="kaySrpM_DmR3XwPyY5lq-34">
          <mxGeometry x="915" y="77.49999999999999" width="45" height="45" as="geometry" />
        </mxCell>
        <mxCell id="kaySrpM_DmR3XwPyY5lq-40" style="edgeStyle=orthogonalEdgeStyle;rounded=0;orthogonalLoop=1;jettySize=auto;html=1;entryX=0;entryY=0.5;entryDx=0;entryDy=0;" edge="1" parent="kaySrpM_DmR3XwPyY5lq-34" source="kaySrpM_DmR3XwPyY5lq-41" target="kaySrpM_DmR3XwPyY5lq-44">
          <mxGeometry relative="1" as="geometry">
            <mxPoint x="490" y="100" as="targetPoint" />
          </mxGeometry>
        </mxCell>
        <mxCell id="kaySrpM_DmR3XwPyY5lq-41" value="Definir intervalo para receber relatório" style="rounded=1;whiteSpace=wrap;html=1;" vertex="1" parent="kaySrpM_DmR3XwPyY5lq-34">
          <mxGeometry x="500" y="70.01" width="120" height="60" as="geometry" />
        </mxCell>
        <mxCell id="kaySrpM_DmR3XwPyY5lq-42" style="edgeStyle=orthogonalEdgeStyle;rounded=0;orthogonalLoop=1;jettySize=auto;html=1;entryX=0;entryY=0.5;entryDx=0;entryDy=0;" edge="1" parent="kaySrpM_DmR3XwPyY5lq-34" source="kaySrpM_DmR3XwPyY5lq-37" target="kaySrpM_DmR3XwPyY5lq-41">
          <mxGeometry relative="1" as="geometry">
            <mxPoint x="190" y="100.01000000000022" as="targetPoint" />
          </mxGeometry>
        </mxCell>
        <mxCell id="kaySrpM_DmR3XwPyY5lq-43" style="edgeStyle=orthogonalEdgeStyle;rounded=0;orthogonalLoop=1;jettySize=auto;html=1;entryX=0;entryY=0.5;entryDx=0;entryDy=0;" edge="1" parent="kaySrpM_DmR3XwPyY5lq-34" source="kaySrpM_DmR3XwPyY5lq-44" target="kaySrpM_DmR3XwPyY5lq-39">
          <mxGeometry relative="1" as="geometry" />
        </mxCell>
        <mxCell id="kaySrpM_DmR3XwPyY5lq-44" value="Recebe relatório" style="rounded=1;whiteSpace=wrap;html=1;" vertex="1" parent="kaySrpM_DmR3XwPyY5lq-34">
          <mxGeometry x="710" y="70.00999999999999" width="120" height="60" as="geometry" />
        </mxCell>
        <mxCell id="kaySrpM_DmR3XwPyY5lq-45" value="&lt;span style=&quot;color: rgba(0, 0, 0, 0); font-family: monospace; font-size: 0px; text-align: start;&quot;&gt;%3CmxGraphModel%3E%3Croot%3E%3CmxCell%20id%3D%220%22%2F%3E%3CmxCell%20id%3D%221%22%20parent%3D%220%22%2F%3E%3CmxCell%20id%3D%222%22%20value%3D%22%22%20style%3D%22ellipse%3BwhiteSpace%3Dwrap%3Bhtml%3D1%3Baspect%3Dfixed%3BstrokeColor%3Dlight-dark(%23FF0800%2C%23EDEDED)%3BstrokeWidth%3D3%3B%22%20vertex%3D%221%22%20parent%3D%221%22%3E%3CmxGeometry%20x%3D%223320%22%20y%3D%221110.5%22%20width%3D%2245%22%20height%3D%2245%22%20as%3D%22geometry%22%2F%3E%3C%2FmxCell%3E%3C%2Froot%3E%3C%2FmxGraphModel%3E&lt;/span&gt;" style="verticalLabelPosition=bottom;html=1;verticalAlign=top;align=center;strokeColor=none;fillColor=#FF0000;shape=mxgraph.azure.message;pointerEvents=1;" vertex="1" parent="kaySrpM_DmR3XwPyY5lq-34">
          <mxGeometry x="920" y="88.11999999999989" width="35" height="23.75" as="geometry" />
        </mxCell>
        <mxCell id="kaySrpM_DmR3XwPyY5lq-46" value="SeniorAssist" style="swimlane;horizontal=0;whiteSpace=wrap;html=1;startSize=23;" vertex="1" parent="kaySrpM_DmR3XwPyY5lq-27">
          <mxGeometry x="120" y="480" width="980" height="280" as="geometry" />
        </mxCell>
        <mxCell id="kaySrpM_DmR3XwPyY5lq-47" style="edgeStyle=orthogonalEdgeStyle;rounded=0;orthogonalLoop=1;jettySize=auto;html=1;exitX=1;exitY=0.5;exitDx=0;exitDy=0;entryX=0;entryY=0.5;entryDx=0;entryDy=0;" edge="1" parent="kaySrpM_DmR3XwPyY5lq-46" source="kaySrpM_DmR3XwPyY5lq-48" target="kaySrpM_DmR3XwPyY5lq-51">
          <mxGeometry relative="1" as="geometry" />
        </mxCell>
        <mxCell id="kaySrpM_DmR3XwPyY5lq-48" value="" style="ellipse;whiteSpace=wrap;html=1;aspect=fixed;strokeColor=light-dark(#11ff00, #ededed);strokeWidth=3;" vertex="1" parent="kaySrpM_DmR3XwPyY5lq-46">
          <mxGeometry x="40" y="90.5" width="45" height="45" as="geometry" />
        </mxCell>
        <mxCell id="kaySrpM_DmR3XwPyY5lq-49" value="" style="ellipse;whiteSpace=wrap;html=1;aspect=fixed;strokeColor=light-dark(#FF0800,#EDEDED);strokeWidth=3;" vertex="1" parent="kaySrpM_DmR3XwPyY5lq-46">
          <mxGeometry x="910" y="90.5" width="45" height="45" as="geometry" />
        </mxCell>
        <mxCell id="kaySrpM_DmR3XwPyY5lq-50" style="edgeStyle=orthogonalEdgeStyle;rounded=0;orthogonalLoop=1;jettySize=auto;html=1;entryX=0;entryY=0.5;entryDx=0;entryDy=0;" edge="1" parent="kaySrpM_DmR3XwPyY5lq-46" source="kaySrpM_DmR3XwPyY5lq-51" target="kaySrpM_DmR3XwPyY5lq-55">
          <mxGeometry relative="1" as="geometry" />
        </mxCell>
        <mxCell id="kaySrpM_DmR3XwPyY5lq-51" value="Geração de relatório&lt;div&gt;diariamente&lt;/div&gt;" style="rounded=1;whiteSpace=wrap;html=1;" vertex="1" parent="kaySrpM_DmR3XwPyY5lq-46">
          <mxGeometry x="270" y="83" width="120" height="60" as="geometry" />
        </mxCell>
        <mxCell id="kaySrpM_DmR3XwPyY5lq-52" value="" style="verticalLabelPosition=bottom;html=1;verticalAlign=top;align=center;strokeColor=none;fillColor=#11FF00;shape=mxgraph.azure.message;pointerEvents=1;" vertex="1" parent="kaySrpM_DmR3XwPyY5lq-46">
          <mxGeometry x="45" y="101.12000000000012" width="35" height="23.75" as="geometry" />
        </mxCell>
        <mxCell id="kaySrpM_DmR3XwPyY5lq-53" value="Sim" style="edgeStyle=orthogonalEdgeStyle;rounded=0;orthogonalLoop=1;jettySize=auto;html=1;entryX=0;entryY=0.5;entryDx=0;entryDy=0;" edge="1" parent="kaySrpM_DmR3XwPyY5lq-46" source="kaySrpM_DmR3XwPyY5lq-55" target="kaySrpM_DmR3XwPyY5lq-58">
          <mxGeometry x="0.0175" y="22" relative="1" as="geometry">
            <mxPoint x="690" y="110.5" as="targetPoint" />
            <mxPoint x="-5" y="1" as="offset" />
          </mxGeometry>
        </mxCell>
        <mxCell id="kaySrpM_DmR3XwPyY5lq-54" value="" style="edgeStyle=orthogonalEdgeStyle;rounded=0;orthogonalLoop=1;jettySize=auto;html=1;" edge="1" parent="kaySrpM_DmR3XwPyY5lq-46" source="kaySrpM_DmR3XwPyY5lq-55" target="kaySrpM_DmR3XwPyY5lq-61">
          <mxGeometry relative="1" as="geometry" />
        </mxCell>
        <mxCell id="kaySrpM_DmR3XwPyY5lq-55" value="" style="rhombus;whiteSpace=wrap;html=1;fillColor=#ffff88;strokeColor=#36393d;" vertex="1" parent="kaySrpM_DmR3XwPyY5lq-46">
          <mxGeometry x="520" y="88" width="60" height="50" as="geometry" />
        </mxCell>
        <mxCell id="kaySrpM_DmR3XwPyY5lq-56" value="No relatório consta algum risco de saúde ao usuário?" style="text;html=1;align=center;verticalAlign=middle;whiteSpace=wrap;rounded=0;" vertex="1" parent="kaySrpM_DmR3XwPyY5lq-46">
          <mxGeometry x="505" y="40" width="90" height="30" as="geometry" />
        </mxCell>
        <mxCell id="kaySrpM_DmR3XwPyY5lq-57" style="edgeStyle=orthogonalEdgeStyle;rounded=0;orthogonalLoop=1;jettySize=auto;html=1;entryX=0;entryY=0.5;entryDx=0;entryDy=0;" edge="1" parent="kaySrpM_DmR3XwPyY5lq-46" source="kaySrpM_DmR3XwPyY5lq-58" target="kaySrpM_DmR3XwPyY5lq-49">
          <mxGeometry relative="1" as="geometry" />
        </mxCell>
        <mxCell id="kaySrpM_DmR3XwPyY5lq-58" value="Envio imediato de relatório e aciona emergência" style="rounded=1;whiteSpace=wrap;html=1;" vertex="1" parent="kaySrpM_DmR3XwPyY5lq-46">
          <mxGeometry x="700" y="83" width="120" height="60" as="geometry" />
        </mxCell>
        <mxCell id="kaySrpM_DmR3XwPyY5lq-59" value="" style="edgeStyle=orthogonalEdgeStyle;rounded=0;orthogonalLoop=1;jettySize=auto;html=1;endArrow=none;startFill=0;" edge="1" parent="kaySrpM_DmR3XwPyY5lq-46" source="kaySrpM_DmR3XwPyY5lq-61" target="kaySrpM_DmR3XwPyY5lq-55">
          <mxGeometry relative="1" as="geometry" />
        </mxCell>
        <mxCell id="kaySrpM_DmR3XwPyY5lq-60" style="edgeStyle=orthogonalEdgeStyle;rounded=0;orthogonalLoop=1;jettySize=auto;html=1;entryX=0;entryY=0.5;entryDx=0;entryDy=0;" edge="1" parent="kaySrpM_DmR3XwPyY5lq-46" source="kaySrpM_DmR3XwPyY5lq-61" target="kaySrpM_DmR3XwPyY5lq-63">
          <mxGeometry relative="1" as="geometry" />
        </mxCell>
        <mxCell id="kaySrpM_DmR3XwPyY5lq-61" value="" style="rhombus;whiteSpace=wrap;html=1;fillColor=#ffff88;strokeColor=#36393d;" vertex="1" parent="kaySrpM_DmR3XwPyY5lq-46">
          <mxGeometry x="520" y="200" width="60" height="50" as="geometry" />
        </mxCell>
        <mxCell id="kaySrpM_DmR3XwPyY5lq-62" value="O usuário/cuidador deseja receber relatório periódico?" style="text;html=1;align=center;verticalAlign=middle;whiteSpace=wrap;rounded=0;" vertex="1" parent="kaySrpM_DmR3XwPyY5lq-46">
          <mxGeometry x="390" y="210" width="115" height="30" as="geometry" />
        </mxCell>
        <mxCell id="kaySrpM_DmR3XwPyY5lq-63" value="" style="ellipse;whiteSpace=wrap;html=1;aspect=fixed;strokeColor=light-dark(#FF0800,#EDEDED);strokeWidth=3;" vertex="1" parent="kaySrpM_DmR3XwPyY5lq-46">
          <mxGeometry x="640" y="202.5" width="45" height="45" as="geometry" />
        </mxCell>
        <mxCell id="kaySrpM_DmR3XwPyY5lq-64" value="&lt;span style=&quot;color: rgba(0, 0, 0, 0); font-family: monospace; font-size: 0px; text-align: start;&quot;&gt;%3CmxGraphModel%3E%3Croot%3E%3CmxCell%20id%3D%220%22%2F%3E%3CmxCell%20id%3D%221%22%20parent%3D%220%22%2F%3E%3CmxCell%20id%3D%222%22%20value%3D%22%22%20style%3D%22ellipse%3BwhiteSpace%3Dwrap%3Bhtml%3D1%3Baspect%3Dfixed%3BstrokeColor%3Dlight-dark(%23FF0800%2C%23EDEDED)%3BstrokeWidth%3D3%3B%22%20vertex%3D%221%22%20parent%3D%221%22%3E%3CmxGeometry%20x%3D%223320%22%20y%3D%221110.5%22%20width%3D%2245%22%20height%3D%2245%22%20as%3D%22geometry%22%2F%3E%3C%2FmxCell%3E%3C%2Froot%3E%3C%2FmxGraphModel%3E&lt;/span&gt;" style="verticalLabelPosition=bottom;html=1;verticalAlign=top;align=center;strokeColor=none;fillColor=#FF0000;shape=mxgraph.azure.message;pointerEvents=1;" vertex="1" parent="kaySrpM_DmR3XwPyY5lq-46">
          <mxGeometry x="915" y="101.12" width="35" height="23.75" as="geometry" />
        </mxCell>
        <mxCell id="kaySrpM_DmR3XwPyY5lq-65" value="" style="verticalLabelPosition=bottom;html=1;verticalAlign=top;align=center;strokeColor=none;fillColor=#FF0000;shape=mxgraph.azure.message;pointerEvents=1;" vertex="1" parent="kaySrpM_DmR3XwPyY5lq-46">
          <mxGeometry x="645" y="213.1199999999999" width="35" height="23.75" as="geometry" />
        </mxCell>
        <mxCell id="kaySrpM_DmR3XwPyY5lq-66" value="" style="verticalLabelPosition=bottom;html=1;verticalAlign=top;align=center;strokeColor=none;fillColor=#FF0000;shape=mxgraph.azure.message;pointerEvents=1;" vertex="1" parent="kaySrpM_DmR3XwPyY5lq-46">
          <mxGeometry x="915" y="101.11999999999989" width="35" height="23.75" as="geometry" />
        </mxCell>
        <mxCell id="kaySrpM_DmR3XwPyY5lq-67" value="Sim" style="edgeStyle=orthogonalEdgeStyle;rounded=0;orthogonalLoop=1;jettySize=auto;html=1;exitX=0.5;exitY=1;exitDx=0;exitDy=0;entryX=0.5;entryY=0;entryDx=0;entryDy=0;" edge="1" parent="kaySrpM_DmR3XwPyY5lq-27" source="kaySrpM_DmR3XwPyY5lq-61" target="kaySrpM_DmR3XwPyY5lq-41">
          <mxGeometry x="-0.1489" y="20" relative="1" as="geometry">
            <Array as="points">
              <mxPoint x="680" y="891" />
            </Array>
            <mxPoint as="offset" />
          </mxGeometry>
        </mxCell>
        <mxCell id="kaySrpM_DmR3XwPyY5lq-68" style="edgeStyle=orthogonalEdgeStyle;rounded=0;orthogonalLoop=1;jettySize=auto;html=1;entryX=0.5;entryY=1;entryDx=0;entryDy=0;" edge="1" parent="kaySrpM_DmR3XwPyY5lq-27" source="kaySrpM_DmR3XwPyY5lq-58" target="kaySrpM_DmR3XwPyY5lq-33">
          <mxGeometry relative="1" as="geometry">
            <Array as="points">
              <mxPoint x="890" y="381" />
              <mxPoint x="620" y="381" />
            </Array>
          </mxGeometry>
        </mxCell>
        <mxCell id="kaySrpM_DmR3XwPyY5lq-69" style="edgeStyle=orthogonalEdgeStyle;rounded=0;orthogonalLoop=1;jettySize=auto;html=1;entryX=0.5;entryY=0;entryDx=0;entryDy=0;" edge="1" parent="kaySrpM_DmR3XwPyY5lq-27" source="kaySrpM_DmR3XwPyY5lq-58" target="kaySrpM_DmR3XwPyY5lq-44">
          <mxGeometry relative="1" as="geometry">
            <Array as="points">
              <mxPoint x="890" y="891" />
            </Array>
          </mxGeometry>
        </mxCell>
        <mxCell id="kaySrpM_DmR3XwPyY5lq-70" value="Não" style="text;html=1;align=center;verticalAlign=middle;resizable=0;points=[];autosize=1;strokeColor=none;fillColor=none;" vertex="1" parent="1">
          <mxGeometry x="2545" y="348" width="50" height="30" as="geometry" />
        </mxCell>
      </root>
    </mxGraphModel>
  </diagram>
  <diagram id="dA1IrLAZLbyewToxB5Yl" name="Página-4">
    <mxGraphModel dx="-1208" dy="2293" grid="1" gridSize="10" guides="1" tooltips="1" connect="1" arrows="1" fold="1" page="1" pageScale="1" pageWidth="827" pageHeight="1169" math="0" shadow="0">
      <root>
        <mxCell id="0" />
        <mxCell id="1" parent="0" />
        <mxCell id="AVx3yrsf76_DIlQREkzU-1" value="Processo de verificação de sinais vitais (To Be)" style="swimlane;whiteSpace=wrap;html=1;startSize=23;" vertex="1" parent="1">
          <mxGeometry x="3530" y="-200" width="1200" height="1030" as="geometry" />
        </mxCell>
        <mxCell id="AVx3yrsf76_DIlQREkzU-2" value="SeniroAssist" style="swimlane;horizontal=0;whiteSpace=wrap;html=1;" vertex="1" parent="AVx3yrsf76_DIlQREkzU-1">
          <mxGeometry x="120" y="430" width="910" height="270" as="geometry" />
        </mxCell>
        <mxCell id="AVx3yrsf76_DIlQREkzU-3" style="edgeStyle=orthogonalEdgeStyle;rounded=0;orthogonalLoop=1;jettySize=auto;html=1;exitX=1;exitY=0.5;exitDx=0;exitDy=0;entryX=0;entryY=0.5;entryDx=0;entryDy=0;" edge="1" parent="AVx3yrsf76_DIlQREkzU-2" target="AVx3yrsf76_DIlQREkzU-5">
          <mxGeometry relative="1" as="geometry">
            <mxPoint x="81.00000000000318" y="100" as="sourcePoint" />
          </mxGeometry>
        </mxCell>
        <mxCell id="AVx3yrsf76_DIlQREkzU-4" style="edgeStyle=orthogonalEdgeStyle;rounded=0;orthogonalLoop=1;jettySize=auto;html=1;" edge="1" parent="AVx3yrsf76_DIlQREkzU-2" source="AVx3yrsf76_DIlQREkzU-5">
          <mxGeometry relative="1" as="geometry">
            <mxPoint x="310" y="100.01000000000022" as="targetPoint" />
          </mxGeometry>
        </mxCell>
        <mxCell id="AVx3yrsf76_DIlQREkzU-5" value="Recebe dados sobre os sinais vitais captados pelos sensores" style="rounded=1;whiteSpace=wrap;html=1;" vertex="1" parent="AVx3yrsf76_DIlQREkzU-2">
          <mxGeometry x="120" y="70.01" width="120" height="60" as="geometry" />
        </mxCell>
        <mxCell id="AVx3yrsf76_DIlQREkzU-6" value="" style="ellipse;whiteSpace=wrap;html=1;aspect=fixed;strokeColor=light-dark(#11ff00, #ededed);strokeWidth=3;" vertex="1" parent="AVx3yrsf76_DIlQREkzU-2">
          <mxGeometry x="36" y="77.5" width="45" height="45" as="geometry" />
        </mxCell>
        <mxCell id="AVx3yrsf76_DIlQREkzU-7" value="" style="group" vertex="1" connectable="0" parent="AVx3yrsf76_DIlQREkzU-2">
          <mxGeometry x="36" y="77.5" width="45" height="45" as="geometry" />
        </mxCell>
        <mxCell id="AVx3yrsf76_DIlQREkzU-8" value="" style="ellipse;whiteSpace=wrap;html=1;aspect=fixed;strokeColor=light-dark(#11ff00, #ededed);strokeWidth=3;" vertex="1" parent="AVx3yrsf76_DIlQREkzU-7">
          <mxGeometry width="45" height="45" as="geometry" />
        </mxCell>
        <mxCell id="AVx3yrsf76_DIlQREkzU-9" value="" style="verticalLabelPosition=bottom;html=1;verticalAlign=top;align=center;strokeColor=none;fillColor=#11FF00;shape=mxgraph.azure.message;pointerEvents=1;" vertex="1" parent="AVx3yrsf76_DIlQREkzU-7">
          <mxGeometry x="5" y="10.629999999999995" width="35" height="23.75" as="geometry" />
        </mxCell>
        <mxCell id="AVx3yrsf76_DIlQREkzU-10" style="edgeStyle=orthogonalEdgeStyle;rounded=0;orthogonalLoop=1;jettySize=auto;html=1;entryX=0;entryY=0.5;entryDx=0;entryDy=0;" edge="1" parent="AVx3yrsf76_DIlQREkzU-2" source="AVx3yrsf76_DIlQREkzU-11">
          <mxGeometry relative="1" as="geometry">
            <mxPoint x="490" y="100.01000000000022" as="targetPoint" />
          </mxGeometry>
        </mxCell>
        <mxCell id="AVx3yrsf76_DIlQREkzU-11" value="Realiza comparação com sinais das ultimas 24horas&amp;nbsp;" style="rounded=1;whiteSpace=wrap;html=1;" vertex="1" parent="AVx3yrsf76_DIlQREkzU-2">
          <mxGeometry x="310" y="70" width="120" height="60" as="geometry" />
        </mxCell>
        <mxCell id="AVx3yrsf76_DIlQREkzU-12" value="" style="ellipse;whiteSpace=wrap;html=1;aspect=fixed;strokeColor=light-dark(#FF0800,#EDEDED);strokeWidth=3;" vertex="1" parent="AVx3yrsf76_DIlQREkzU-2">
          <mxGeometry x="725" y="77.51" width="45" height="45" as="geometry" />
        </mxCell>
        <mxCell id="AVx3yrsf76_DIlQREkzU-13" value="" style="verticalLabelPosition=bottom;html=1;verticalAlign=top;align=center;strokeColor=none;fillColor=#FF0000;shape=mxgraph.azure.message;pointerEvents=1;" vertex="1" parent="AVx3yrsf76_DIlQREkzU-2">
          <mxGeometry x="730" y="88.14" width="35" height="23.75" as="geometry" />
        </mxCell>
        <mxCell id="AVx3yrsf76_DIlQREkzU-14" style="edgeStyle=orthogonalEdgeStyle;rounded=0;orthogonalLoop=1;jettySize=auto;html=1;entryX=0;entryY=0.5;entryDx=0;entryDy=0;" edge="1" parent="AVx3yrsf76_DIlQREkzU-2" source="AVx3yrsf76_DIlQREkzU-15" target="AVx3yrsf76_DIlQREkzU-12">
          <mxGeometry relative="1" as="geometry" />
        </mxCell>
        <mxCell id="AVx3yrsf76_DIlQREkzU-15" value="Armazena comparações de dados&amp;nbsp;" style="rounded=1;whiteSpace=wrap;html=1;flipH=1;" vertex="1" parent="AVx3yrsf76_DIlQREkzU-2">
          <mxGeometry x="490" y="70.01000000000022" width="120" height="60" as="geometry" />
        </mxCell>
        <mxCell id="AVx3yrsf76_DIlQREkzU-16" value="todo segundo" style="text;html=1;align=center;verticalAlign=middle;resizable=0;points=[];autosize=1;strokeColor=none;fillColor=none;" vertex="1" parent="AVx3yrsf76_DIlQREkzU-2">
          <mxGeometry x="20" y="122.5" width="100" height="30" as="geometry" />
        </mxCell>
        <mxCell id="AVx3yrsf76_DIlQREkzU-17" value="Sensores" style="swimlane;horizontal=0;whiteSpace=wrap;html=1;" vertex="1" parent="AVx3yrsf76_DIlQREkzU-1">
          <mxGeometry x="120" y="740" width="910" height="270" as="geometry" />
        </mxCell>
        <mxCell id="AVx3yrsf76_DIlQREkzU-18" style="edgeStyle=orthogonalEdgeStyle;rounded=0;orthogonalLoop=1;jettySize=auto;html=1;exitX=1;exitY=0.5;exitDx=0;exitDy=0;entryX=0;entryY=0.5;entryDx=0;entryDy=0;" edge="1" parent="AVx3yrsf76_DIlQREkzU-17" target="AVx3yrsf76_DIlQREkzU-20">
          <mxGeometry relative="1" as="geometry">
            <mxPoint x="81.00000000000318" y="100" as="sourcePoint" />
          </mxGeometry>
        </mxCell>
        <mxCell id="AVx3yrsf76_DIlQREkzU-19" style="edgeStyle=orthogonalEdgeStyle;rounded=0;orthogonalLoop=1;jettySize=auto;html=1;entryX=0;entryY=0.5;entryDx=0;entryDy=0;" edge="1" parent="AVx3yrsf76_DIlQREkzU-17" source="AVx3yrsf76_DIlQREkzU-20" target="AVx3yrsf76_DIlQREkzU-25">
          <mxGeometry relative="1" as="geometry" />
        </mxCell>
        <mxCell id="AVx3yrsf76_DIlQREkzU-20" value="Fará a medição de temperatura, batimento cardíaco e umidade" style="rounded=1;whiteSpace=wrap;html=1;" vertex="1" parent="AVx3yrsf76_DIlQREkzU-17">
          <mxGeometry x="120" y="60.00000000000001" width="120" height="79.99" as="geometry" />
        </mxCell>
        <mxCell id="AVx3yrsf76_DIlQREkzU-21" value="" style="ellipse;whiteSpace=wrap;html=1;aspect=fixed;strokeColor=light-dark(#11ff00, #ededed);strokeWidth=3;" vertex="1" parent="AVx3yrsf76_DIlQREkzU-17">
          <mxGeometry x="36" y="77.5" width="45" height="45" as="geometry" />
        </mxCell>
        <mxCell id="AVx3yrsf76_DIlQREkzU-22" value="" style="group" vertex="1" connectable="0" parent="AVx3yrsf76_DIlQREkzU-17">
          <mxGeometry x="36" y="77.5" width="45" height="45" as="geometry" />
        </mxCell>
        <mxCell id="AVx3yrsf76_DIlQREkzU-23" value="" style="ellipse;whiteSpace=wrap;html=1;aspect=fixed;strokeColor=light-dark(#11ff00, #ededed);strokeWidth=3;" vertex="1" parent="AVx3yrsf76_DIlQREkzU-22">
          <mxGeometry width="45" height="45" as="geometry" />
        </mxCell>
        <mxCell id="AVx3yrsf76_DIlQREkzU-24" value="" style="verticalLabelPosition=bottom;html=1;verticalAlign=top;align=center;strokeColor=none;fillColor=#11FF00;shape=mxgraph.azure.message;pointerEvents=1;" vertex="1" parent="AVx3yrsf76_DIlQREkzU-22">
          <mxGeometry x="5" y="10.629999999999995" width="35" height="23.75" as="geometry" />
        </mxCell>
        <mxCell id="AVx3yrsf76_DIlQREkzU-25" value="" style="ellipse;whiteSpace=wrap;html=1;aspect=fixed;strokeColor=light-dark(#FF0800,#EDEDED);strokeWidth=3;" vertex="1" parent="AVx3yrsf76_DIlQREkzU-17">
          <mxGeometry x="305" y="77.5" width="45" height="45" as="geometry" />
        </mxCell>
        <mxCell id="AVx3yrsf76_DIlQREkzU-26" value="Todo segundo" style="text;html=1;align=center;verticalAlign=middle;resizable=0;points=[];autosize=1;strokeColor=none;fillColor=none;" vertex="1" parent="AVx3yrsf76_DIlQREkzU-17">
          <mxGeometry x="15" y="120" width="100" height="30" as="geometry" />
        </mxCell>
        <mxCell id="AVx3yrsf76_DIlQREkzU-27" value="" style="verticalLabelPosition=bottom;html=1;verticalAlign=top;align=center;strokeColor=none;fillColor=#FF0000;shape=mxgraph.azure.message;pointerEvents=1;" vertex="1" parent="AVx3yrsf76_DIlQREkzU-17">
          <mxGeometry x="310" y="88.13" width="35" height="23.75" as="geometry" />
        </mxCell>
        <mxCell id="AVx3yrsf76_DIlQREkzU-28" style="edgeStyle=orthogonalEdgeStyle;rounded=0;orthogonalLoop=1;jettySize=auto;html=1;entryX=0.5;entryY=1;entryDx=0;entryDy=0;" edge="1" parent="AVx3yrsf76_DIlQREkzU-1" source="AVx3yrsf76_DIlQREkzU-20" target="AVx3yrsf76_DIlQREkzU-5">
          <mxGeometry relative="1" as="geometry" />
        </mxCell>
        <mxCell id="gZNKQMZfuuez7V5Za6Je-1" value="Usuário" style="swimlane;horizontal=0;whiteSpace=wrap;html=1;" vertex="1" parent="AVx3yrsf76_DIlQREkzU-1">
          <mxGeometry x="120" y="70" width="910" height="270" as="geometry" />
        </mxCell>
        <mxCell id="gZNKQMZfuuez7V5Za6Je-2" style="edgeStyle=orthogonalEdgeStyle;rounded=0;orthogonalLoop=1;jettySize=auto;html=1;exitX=1;exitY=0.5;exitDx=0;exitDy=0;entryX=0;entryY=0.5;entryDx=0;entryDy=0;" edge="1" parent="gZNKQMZfuuez7V5Za6Je-1" target="gZNKQMZfuuez7V5Za6Je-4">
          <mxGeometry relative="1" as="geometry">
            <mxPoint x="81.00000000000318" y="100" as="sourcePoint" />
          </mxGeometry>
        </mxCell>
        <mxCell id="gZNKQMZfuuez7V5Za6Je-4" value="Solicita ou define intervalo para receber informações vitais" style="rounded=1;whiteSpace=wrap;html=1;" vertex="1" parent="gZNKQMZfuuez7V5Za6Je-1">
          <mxGeometry x="120" y="70.01" width="120" height="60" as="geometry" />
        </mxCell>
        <mxCell id="gZNKQMZfuuez7V5Za6Je-5" value="" style="ellipse;whiteSpace=wrap;html=1;aspect=fixed;strokeColor=light-dark(#11ff00, #ededed);strokeWidth=3;" vertex="1" parent="gZNKQMZfuuez7V5Za6Je-1">
          <mxGeometry x="36" y="77.5" width="45" height="45" as="geometry" />
        </mxCell>
        <mxCell id="gZNKQMZfuuez7V5Za6Je-6" value="" style="group" vertex="1" connectable="0" parent="gZNKQMZfuuez7V5Za6Je-1">
          <mxGeometry x="36" y="77.5" width="45" height="45" as="geometry" />
        </mxCell>
        <mxCell id="gZNKQMZfuuez7V5Za6Je-7" value="" style="ellipse;whiteSpace=wrap;html=1;aspect=fixed;strokeColor=light-dark(#11ff00, #ededed);strokeWidth=3;" vertex="1" parent="gZNKQMZfuuez7V5Za6Je-6">
          <mxGeometry width="45" height="45" as="geometry" />
        </mxCell>
        <mxCell id="gZNKQMZfuuez7V5Za6Je-8" value="" style="verticalLabelPosition=bottom;html=1;verticalAlign=top;align=center;strokeColor=none;fillColor=#11FF00;shape=mxgraph.azure.message;pointerEvents=1;" vertex="1" parent="gZNKQMZfuuez7V5Za6Je-6">
          <mxGeometry x="5" y="10.629999999999995" width="35" height="23.75" as="geometry" />
        </mxCell>
        <mxCell id="gZNKQMZfuuez7V5Za6Je-11" value="" style="ellipse;whiteSpace=wrap;html=1;aspect=fixed;strokeColor=light-dark(#FF0800,#EDEDED);strokeWidth=3;" vertex="1" parent="gZNKQMZfuuez7V5Za6Je-1">
          <mxGeometry x="725" y="77.51" width="45" height="45" as="geometry" />
        </mxCell>
        <mxCell id="gZNKQMZfuuez7V5Za6Je-12" value="" style="verticalLabelPosition=bottom;html=1;verticalAlign=top;align=center;strokeColor=none;fillColor=#FF0000;shape=mxgraph.azure.message;pointerEvents=1;" vertex="1" parent="gZNKQMZfuuez7V5Za6Je-1">
          <mxGeometry x="730" y="88.14" width="35" height="23.75" as="geometry" />
        </mxCell>
        <mxCell id="gZNKQMZfuuez7V5Za6Je-13" style="edgeStyle=orthogonalEdgeStyle;rounded=0;orthogonalLoop=1;jettySize=auto;html=1;entryX=0;entryY=0.5;entryDx=0;entryDy=0;" edge="1" parent="gZNKQMZfuuez7V5Za6Je-1" source="gZNKQMZfuuez7V5Za6Je-14" target="gZNKQMZfuuez7V5Za6Je-11">
          <mxGeometry relative="1" as="geometry" />
        </mxCell>
        <mxCell id="gZNKQMZfuuez7V5Za6Je-14" value="Recebe dados sobre sinais vitais" style="rounded=1;whiteSpace=wrap;html=1;flipH=1;" vertex="1" parent="gZNKQMZfuuez7V5Za6Je-1">
          <mxGeometry x="490" y="70.01000000000022" width="120" height="60" as="geometry" />
        </mxCell>
        <mxCell id="gZNKQMZfuuez7V5Za6Je-16" style="edgeStyle=orthogonalEdgeStyle;rounded=0;orthogonalLoop=1;jettySize=auto;html=1;entryX=0.5;entryY=0;entryDx=0;entryDy=0;" edge="1" parent="AVx3yrsf76_DIlQREkzU-1" source="gZNKQMZfuuez7V5Za6Je-4" target="AVx3yrsf76_DIlQREkzU-5">
          <mxGeometry relative="1" as="geometry" />
        </mxCell>
        <mxCell id="gZNKQMZfuuez7V5Za6Je-19" style="edgeStyle=orthogonalEdgeStyle;rounded=0;orthogonalLoop=1;jettySize=auto;html=1;entryX=0.5;entryY=1;entryDx=0;entryDy=0;" edge="1" parent="AVx3yrsf76_DIlQREkzU-1" source="AVx3yrsf76_DIlQREkzU-15" target="gZNKQMZfuuez7V5Za6Je-14">
          <mxGeometry relative="1" as="geometry" />
        </mxCell>
        <mxCell id="AVx3yrsf76_DIlQREkzU-29" value="Processo de verificação de sinais vitais (As is)" style="swimlane;whiteSpace=wrap;html=1;startSize=23;" vertex="1" parent="1">
          <mxGeometry x="3530" y="-880" width="1080" height="630" as="geometry" />
        </mxCell>
        <mxCell id="AVx3yrsf76_DIlQREkzU-30" value="Usuário" style="swimlane;horizontal=0;whiteSpace=wrap;html=1;" vertex="1" parent="AVx3yrsf76_DIlQREkzU-29">
          <mxGeometry x="130" y="80" width="870" height="210" as="geometry" />
        </mxCell>
        <mxCell id="AVx3yrsf76_DIlQREkzU-31" style="edgeStyle=orthogonalEdgeStyle;rounded=0;orthogonalLoop=1;jettySize=auto;html=1;entryX=0;entryY=0.5;entryDx=0;entryDy=0;" edge="1" parent="AVx3yrsf76_DIlQREkzU-30" source="AVx3yrsf76_DIlQREkzU-32" target="AVx3yrsf76_DIlQREkzU-35">
          <mxGeometry relative="1" as="geometry" />
        </mxCell>
        <mxCell id="AVx3yrsf76_DIlQREkzU-32" value="" style="ellipse;whiteSpace=wrap;html=1;aspect=fixed;strokeColor=light-dark(#11ff00, #ededed);strokeWidth=3;" vertex="1" parent="AVx3yrsf76_DIlQREkzU-30">
          <mxGeometry x="40" y="82.5" width="45" height="45" as="geometry" />
        </mxCell>
        <mxCell id="AVx3yrsf76_DIlQREkzU-33" value="" style="ellipse;whiteSpace=wrap;html=1;aspect=fixed;strokeColor=light-dark(#FF0800,#EDEDED);strokeWidth=3;" vertex="1" parent="AVx3yrsf76_DIlQREkzU-30">
          <mxGeometry x="770" y="82.5" width="45" height="45" as="geometry" />
        </mxCell>
        <mxCell id="AVx3yrsf76_DIlQREkzU-34" style="edgeStyle=orthogonalEdgeStyle;rounded=0;orthogonalLoop=1;jettySize=auto;html=1;entryX=0;entryY=0.5;entryDx=0;entryDy=0;" edge="1" parent="AVx3yrsf76_DIlQREkzU-30" source="AVx3yrsf76_DIlQREkzU-35" target="AVx3yrsf76_DIlQREkzU-39">
          <mxGeometry relative="1" as="geometry" />
        </mxCell>
        <mxCell id="AVx3yrsf76_DIlQREkzU-35" value="O idoso precisa verificar sinais como temperatura, umidade e frequência cardíaca" style="rounded=1;whiteSpace=wrap;html=1;" vertex="1" parent="AVx3yrsf76_DIlQREkzU-30">
          <mxGeometry x="130" y="65" width="120" height="80" as="geometry" />
        </mxCell>
        <mxCell id="AVx3yrsf76_DIlQREkzU-36" style="edgeStyle=orthogonalEdgeStyle;rounded=0;orthogonalLoop=1;jettySize=auto;html=1;entryX=0;entryY=0.5;entryDx=0;entryDy=0;" edge="1" parent="AVx3yrsf76_DIlQREkzU-30" source="AVx3yrsf76_DIlQREkzU-37" target="AVx3yrsf76_DIlQREkzU-33">
          <mxGeometry relative="1" as="geometry" />
        </mxCell>
        <mxCell id="AVx3yrsf76_DIlQREkzU-37" value="Realizar uma consulta presencial com o médico" style="rounded=1;whiteSpace=wrap;html=1;" vertex="1" parent="AVx3yrsf76_DIlQREkzU-30">
          <mxGeometry x="580" y="65" width="120" height="80" as="geometry" />
        </mxCell>
        <mxCell id="AVx3yrsf76_DIlQREkzU-38" style="edgeStyle=orthogonalEdgeStyle;rounded=0;orthogonalLoop=1;jettySize=auto;html=1;entryX=0;entryY=0.5;entryDx=0;entryDy=0;" edge="1" parent="AVx3yrsf76_DIlQREkzU-30" source="AVx3yrsf76_DIlQREkzU-39" target="AVx3yrsf76_DIlQREkzU-37">
          <mxGeometry relative="1" as="geometry" />
        </mxCell>
        <mxCell id="AVx3yrsf76_DIlQREkzU-39" value="" style="rhombus;whiteSpace=wrap;html=1;fillColor=#ffff88;strokeColor=#36393d;" vertex="1" parent="AVx3yrsf76_DIlQREkzU-30">
          <mxGeometry x="385" y="80" width="60" height="50" as="geometry" />
        </mxCell>
        <mxCell id="AVx3yrsf76_DIlQREkzU-40" value="Possui equipamento para fazer a coleta desses dados?" style="text;html=1;align=center;verticalAlign=middle;resizable=0;points=[];autosize=1;strokeColor=none;fillColor=none;" vertex="1" parent="AVx3yrsf76_DIlQREkzU-30">
          <mxGeometry x="255" y="40" width="320" height="30" as="geometry" />
        </mxCell>
        <mxCell id="AVx3yrsf76_DIlQREkzU-41" value="Sim" style="text;html=1;align=center;verticalAlign=middle;resizable=0;points=[];autosize=1;strokeColor=none;fillColor=none;" vertex="1" parent="AVx3yrsf76_DIlQREkzU-30">
          <mxGeometry x="415" y="145" width="40" height="30" as="geometry" />
        </mxCell>
        <mxCell id="AVx3yrsf76_DIlQREkzU-42" value="Não" style="text;html=1;align=center;verticalAlign=middle;resizable=0;points=[];autosize=1;strokeColor=none;fillColor=none;" vertex="1" parent="AVx3yrsf76_DIlQREkzU-30">
          <mxGeometry x="510" y="70" width="50" height="30" as="geometry" />
        </mxCell>
        <mxCell id="AVx3yrsf76_DIlQREkzU-43" value="" style="verticalLabelPosition=bottom;html=1;verticalAlign=top;align=center;strokeColor=none;fillColor=#11FF00;shape=mxgraph.azure.message;pointerEvents=1;" vertex="1" parent="AVx3yrsf76_DIlQREkzU-30">
          <mxGeometry x="45" y="93.13" width="35" height="23.75" as="geometry" />
        </mxCell>
        <mxCell id="AVx3yrsf76_DIlQREkzU-44" value="Cuidador do idoso" style="swimlane;horizontal=0;whiteSpace=wrap;html=1;" vertex="1" parent="AVx3yrsf76_DIlQREkzU-29">
          <mxGeometry x="134" y="370" width="866" height="200" as="geometry" />
        </mxCell>
        <mxCell id="AVx3yrsf76_DIlQREkzU-45" style="edgeStyle=orthogonalEdgeStyle;rounded=0;orthogonalLoop=1;jettySize=auto;html=1;entryX=0;entryY=0.5;entryDx=0;entryDy=0;" edge="1" parent="AVx3yrsf76_DIlQREkzU-44" source="AVx3yrsf76_DIlQREkzU-46" target="AVx3yrsf76_DIlQREkzU-54">
          <mxGeometry relative="1" as="geometry" />
        </mxCell>
        <mxCell id="AVx3yrsf76_DIlQREkzU-46" value="Realiza medição manualmente com as ferramentas específicas" style="rounded=1;whiteSpace=wrap;html=1;" vertex="1" parent="AVx3yrsf76_DIlQREkzU-44">
          <mxGeometry x="346" y="60" width="120" height="80" as="geometry" />
        </mxCell>
        <mxCell id="AVx3yrsf76_DIlQREkzU-47" value="" style="ellipse;whiteSpace=wrap;html=1;aspect=fixed;strokeColor=light-dark(#11ff00, #ededed);strokeWidth=3;" vertex="1" parent="AVx3yrsf76_DIlQREkzU-44">
          <mxGeometry x="36" y="77.5" width="45" height="45" as="geometry" />
        </mxCell>
        <mxCell id="AVx3yrsf76_DIlQREkzU-48" value="" style="group" vertex="1" connectable="0" parent="AVx3yrsf76_DIlQREkzU-44">
          <mxGeometry x="36" y="77.5" width="45" height="45" as="geometry" />
        </mxCell>
        <mxCell id="AVx3yrsf76_DIlQREkzU-49" value="" style="ellipse;whiteSpace=wrap;html=1;aspect=fixed;strokeColor=light-dark(#11ff00, #ededed);strokeWidth=3;" vertex="1" parent="AVx3yrsf76_DIlQREkzU-48">
          <mxGeometry width="45" height="45" as="geometry" />
        </mxCell>
        <mxCell id="AVx3yrsf76_DIlQREkzU-50" value="" style="ellipse;whiteSpace=wrap;html=1;aspect=fixed;strokeColor=light-dark(#FF0800,#EDEDED);strokeWidth=3;" vertex="1" parent="AVx3yrsf76_DIlQREkzU-44">
          <mxGeometry x="766" y="77.5" width="45" height="45" as="geometry" />
        </mxCell>
        <mxCell id="AVx3yrsf76_DIlQREkzU-51" value="" style="group;fillColor=none;" vertex="1" connectable="0" parent="AVx3yrsf76_DIlQREkzU-44">
          <mxGeometry x="766" y="77.5" width="45" height="45" as="geometry" />
        </mxCell>
        <mxCell id="AVx3yrsf76_DIlQREkzU-52" value="" style="verticalLabelPosition=bottom;html=1;verticalAlign=top;align=center;strokeColor=none;fillColor=#FF0000;shape=mxgraph.azure.message;pointerEvents=1;" vertex="1" parent="AVx3yrsf76_DIlQREkzU-51">
          <mxGeometry x="5" y="10.629999999999995" width="35" height="23.75" as="geometry" />
        </mxCell>
        <mxCell id="AVx3yrsf76_DIlQREkzU-53" style="edgeStyle=orthogonalEdgeStyle;rounded=0;orthogonalLoop=1;jettySize=auto;html=1;" edge="1" parent="AVx3yrsf76_DIlQREkzU-44" source="AVx3yrsf76_DIlQREkzU-54">
          <mxGeometry relative="1" as="geometry">
            <mxPoint x="766" y="100" as="targetPoint" />
          </mxGeometry>
        </mxCell>
        <mxCell id="AVx3yrsf76_DIlQREkzU-54" value="Anotar os dados coletados e enviar para o médico fazer a análise" style="rounded=1;whiteSpace=wrap;html=1;" vertex="1" parent="AVx3yrsf76_DIlQREkzU-44">
          <mxGeometry x="556" y="60" width="120" height="80" as="geometry" />
        </mxCell>
        <mxCell id="AVx3yrsf76_DIlQREkzU-55" style="edgeStyle=orthogonalEdgeStyle;rounded=0;orthogonalLoop=1;jettySize=auto;html=1;entryX=0.5;entryY=0;entryDx=0;entryDy=0;dashed=1;" edge="1" parent="AVx3yrsf76_DIlQREkzU-29" source="AVx3yrsf76_DIlQREkzU-39">
          <mxGeometry relative="1" as="geometry">
            <mxPoint x="545" y="430" as="targetPoint" />
          </mxGeometry>
        </mxCell>
      </root>
    </mxGraphModel>
  </diagram>
  <diagram id="_nMCekYAxWfADXsZcuxb" name="Página-5">
    <mxGraphModel dx="1500" dy="1972" grid="1" gridSize="10" guides="1" tooltips="1" connect="1" arrows="1" fold="1" page="1" pageScale="1" pageWidth="827" pageHeight="1169" math="0" shadow="0">
      <root>
        <mxCell id="0" />
        <mxCell id="1" parent="0" />
        <mxCell id="6j6-4oS2_OddYu3CbQNt-7" style="rounded=0;orthogonalLoop=1;jettySize=auto;html=1;exitX=1;exitY=1;exitDx=0;exitDy=0;exitPerimeter=0;entryX=0;entryY=0.5;entryDx=0;entryDy=0;endArrow=none;startFill=0;" edge="1" parent="1" source="XVqArt5kAfiP4hVZfH8l-1" target="6j6-4oS2_OddYu3CbQNt-6">
          <mxGeometry relative="1" as="geometry" />
        </mxCell>
        <mxCell id="6j6-4oS2_OddYu3CbQNt-10" style="edgeStyle=none;rounded=0;orthogonalLoop=1;jettySize=auto;html=1;entryX=0;entryY=0.5;entryDx=0;entryDy=0;endArrow=none;startFill=0;" edge="1" parent="1" source="XVqArt5kAfiP4hVZfH8l-1" target="6j6-4oS2_OddYu3CbQNt-9">
          <mxGeometry relative="1" as="geometry" />
        </mxCell>
        <mxCell id="XVqArt5kAfiP4hVZfH8l-1" value="Usuário&lt;span style=&quot;color: rgba(0, 0, 0, 0); font-family: monospace; font-size: 0px; text-align: start;&quot;&gt;%3CmxGraphModel%3E%3Croot%3E%3CmxCell%20id%3D%220%22%2F%3E%3CmxCell%20id%3D%221%22%20parent%3D%220%22%2F%3E%3CmxCell%20id%3D%222%22%20value%3D%22Usu%C3%A1rio%22%20style%3D%22shape%3DumlActor%3BverticalLabelPosition%3Dbottom%3BverticalAlign%3Dtop%3Bhtml%3D1%3B%22%20vertex%3D%221%22%20parent%3D%221%22%3E%3CmxGeometry%20x%3D%22130%22%20y%3D%22-40%22%20width%3D%2230%22%20height%3D%2260%22%20as%3D%22geometry%22%2F%3E%3C%2FmxCell%3E%3C%2Froot%3E%3C%2FmxGraphModel%3E&lt;/span&gt;" style="shape=umlActor;verticalLabelPosition=bottom;verticalAlign=top;html=1;" vertex="1" parent="1">
          <mxGeometry x="130" y="-40" width="30" height="60" as="geometry" />
        </mxCell>
        <mxCell id="6j6-4oS2_OddYu3CbQNt-1" value="SeniorAssist" style="shape=umlFrame;whiteSpace=wrap;html=1;pointerEvents=0;width=80;height=30;" vertex="1" parent="1">
          <mxGeometry x="220" y="-210" width="490" height="1070" as="geometry" />
        </mxCell>
        <mxCell id="6j6-4oS2_OddYu3CbQNt-8" style="rounded=0;orthogonalLoop=1;jettySize=auto;html=1;exitX=0;exitY=1;exitDx=0;exitDy=0;exitPerimeter=0;entryX=1;entryY=0.5;entryDx=0;entryDy=0;endArrow=none;startFill=0;" edge="1" parent="1" source="6j6-4oS2_OddYu3CbQNt-3" target="6j6-4oS2_OddYu3CbQNt-6">
          <mxGeometry relative="1" as="geometry" />
        </mxCell>
        <mxCell id="6j6-4oS2_OddYu3CbQNt-11" style="edgeStyle=none;rounded=0;orthogonalLoop=1;jettySize=auto;html=1;entryX=1;entryY=0.5;entryDx=0;entryDy=0;endArrow=none;startFill=0;" edge="1" parent="1" source="6j6-4oS2_OddYu3CbQNt-3" target="6j6-4oS2_OddYu3CbQNt-9">
          <mxGeometry relative="1" as="geometry" />
        </mxCell>
        <mxCell id="6j6-4oS2_OddYu3CbQNt-3" value="Cuidador" style="shape=umlActor;verticalLabelPosition=bottom;verticalAlign=top;html=1;" vertex="1" parent="1">
          <mxGeometry x="750" y="-50" width="30" height="60" as="geometry" />
        </mxCell>
        <mxCell id="6j6-4oS2_OddYu3CbQNt-6" value="&lt;div&gt;UC - 04&lt;/div&gt;&lt;div&gt;Definir intervalo para receber dados vitais&lt;/div&gt;" style="ellipse;whiteSpace=wrap;html=1;" vertex="1" parent="1">
          <mxGeometry x="390" y="140" width="140" height="70" as="geometry" />
        </mxCell>
        <mxCell id="6j6-4oS2_OddYu3CbQNt-9" value="UC-05&lt;div&gt;Solicitar os dados vitais do usuário&lt;/div&gt;" style="ellipse;whiteSpace=wrap;html=1;" vertex="1" parent="1">
          <mxGeometry x="390" y="240" width="140" height="70" as="geometry" />
        </mxCell>
      </root>
    </mxGraphModel>
  </diagram>
</mxfile>
